<svg width="209" height="190" viewBox="0 0 209 190" fill="none" xmlns="http://www.w3.org/2000/svg">
<path d="M133.272 156.905H0.223063L0.205872 0.23596L112.938 0.220215L133.255 18.8724L133.272 156.905Z" fill="white"/>
<path d="M133.273 156.905L0.223274 157H0.120233V156.905L0 0.189035V0H0.206083H112.938L133.255 18.6522L133.273 156.905ZM133.273 156.905L133.152 18.8728L112.818 0.252039H112.904L0.171701 0.330811L0.377785 0.141776L0.309125 156.905V156.827L133.273 156.905Z" fill="#263238"/>
<path d="M14.77 33.7142L66.7395 33.6022L118.709 33.7142L66.7395 33.8421L14.77 33.7142Z" fill="#C7C7C7"/>
<path d="M14.77 37.6052L66.7395 37.4772L118.709 37.6052L66.7395 37.7332L14.77 37.6052Z" fill="#C7C7C7"/>
<path d="M14.77 41.4965L66.7395 41.3685L118.709 41.4965L66.7395 41.6085L14.77 41.4965Z" fill="#C7C7C7"/>
<path d="M14.77 45.3869L66.7395 45.2589L118.709 45.3709L66.7395 45.4989L14.77 45.3869Z" fill="#C7C7C7"/>
<path d="M14.77 49.2788L66.7395 49.1508L118.709 49.2627L66.7395 49.3907L14.77 49.2788Z" fill="#C7C7C7"/>
<path d="M14.77 53.1695L66.7395 53.0415L118.709 53.1535L66.7395 53.2815L14.77 53.1695Z" fill="#C7C7C7"/>
<path d="M14.77 57.045L66.7395 56.917L118.709 57.045L66.7395 57.173L14.77 57.045Z" fill="#C7C7C7"/>
<path d="M14.77 60.9367L66.7395 60.8087L118.709 60.9367L66.7395 61.0487L14.77 60.9367Z" fill="#C7C7C7"/>
<path d="M14.77 64.8275L66.7395 64.6995L118.709 64.8115L66.7395 64.9395L14.77 64.8275Z" fill="#C7C7C7"/>
<path d="M14.77 68.7178L66.7395 68.5898L118.709 68.7018L66.7395 68.8298L14.77 68.7178Z" fill="#C7C7C7"/>
<path d="M14.77 72.6091L66.7395 72.4811L118.709 72.5931L66.7395 72.7211L14.77 72.6091Z" fill="#C7C7C7"/>
<path d="M14.77 76.4851L66.7395 76.3572L118.709 76.4851L66.7395 76.6131L14.77 76.4851Z" fill="#C7C7C7"/>
<path d="M14.77 80.3759L66.7395 80.2479L118.709 80.3759L66.7395 80.4879L14.77 80.3759Z" fill="#C7C7C7"/>
<path d="M14.77 84.2669L66.7395 84.1389L118.709 84.2669L66.7395 84.3789L14.77 84.2669Z" fill="#C7C7C7"/>
<path d="M14.77 88.1586L66.7395 88.0306L118.709 88.1426L66.7395 88.2706L14.77 88.1586Z" fill="#C7C7C7"/>
<path d="M33.6447 76.3732H25.7617V92.6939H33.6447V76.3732Z" fill="white"/>
<path d="M48.2598 67.6609H40.3768V92.6776H48.2598V67.6609Z" fill="white"/>
<path d="M62.8924 57.9249H55.0093V92.693H62.8924V57.9249Z" fill="white"/>
<path d="M77.508 53.735H69.6249V92.6778H77.508V53.735Z" fill="white"/>
<path d="M92.1401 46.2683H84.2571V92.6783H92.1401V46.2683Z" fill="white"/>
<path d="M106.755 38.8954H98.8725V92.678H106.755V38.8954Z" fill="white"/>
<path d="M17.5864 30.9862L17.7924 46.4089L17.9299 61.8317C18.0329 72.1188 18.05 82.4058 18.0844 92.6772L17.5864 92.236H42.867H68.1475L93.4281 92.3778L118.709 92.6456L93.4281 92.9135L68.1475 93.134H42.867H17.1055V92.6772C17.1055 82.4058 17.1055 72.1188 17.2428 61.8317L17.3803 46.4089L17.5864 30.9862Z" fill="#C7C7C7"/>
<path d="M33.6447 95.9388H25.7617V96.6005H33.6447V95.9388Z" fill="#C7C7C7"/>
<path d="M48.2598 95.9388H40.3768V96.6005H48.2598V95.9388Z" fill="#C7C7C7"/>
<path d="M62.8924 95.9388H55.0093V96.6005H62.8924V95.9388Z" fill="#C7C7C7"/>
<path d="M77.508 95.9388H69.6249V96.5847H77.508V95.9388Z" fill="#C7C7C7"/>
<path d="M92.1401 95.9388H84.2571V96.5847H92.1401V95.9388Z" fill="#C7C7C7"/>
<path d="M106.755 95.9388H98.8725V96.5847H106.755V95.9388Z" fill="#C7C7C7"/>
<path d="M26.6546 78.4207C30.5043 78.3658 34.3469 78.0975 38.1613 77.6173C41.9742 77.1828 45.7582 76.557 49.4964 75.7426C56.9891 74.1972 64.2579 71.8496 71.1532 68.748C78.0565 65.6941 84.4239 61.7118 90.0449 56.9328L91.1097 56.0349L92.1231 55.1054L94.1324 53.215C95.369 51.8759 96.7085 50.5999 97.842 49.1821C100.217 46.4002 102.375 43.468 104.3 40.4073C100.805 46.7712 96.1596 52.5454 90.5602 57.4842C87.7721 59.9659 84.7554 62.2218 81.5436 64.2267C78.3552 66.2594 75.0022 68.0659 71.5139 69.6302C64.5287 72.7381 57.1504 75.0399 49.5479 76.483C42.0299 77.9738 34.343 78.6244 26.6546 78.4207Z" fill="#263238"/>
<path d="M106.567 45.4486L105.467 45.685L104.128 40.7541L98.8553 42.3452L98.5118 41.3685L104.918 39.4308L106.567 45.4486Z" fill="#263238"/>
<path d="M12.572 120.876L120.959 120.876V116.859L12.572 116.859V120.876Z" fill="#DBDBDB"/>
<path d="M12.589 131.038H73.6093V127.021H12.589V131.038Z" fill="#DBDBDB"/>
<path d="M36.2552 21.4712L97.2756 21.4712V17.454L36.2552 17.454V21.4712Z" fill="#DBDBDB"/>
<path d="M133.273 18.8724H112.938V0.220215L133.273 18.8724Z" fill="#EBEBEB"/>
<path d="M203.865 0L206.441 4.08017L209 0H203.865Z" fill="#263238"/>
<path d="M180 189.905H46.2248L46.2075 31.1919H159.555L180 50.0715V189.905Z" fill="white"/>
<path d="M180 189.904L46.2245 190H46.1209V189.904L46 31.1915V31H46.2072H159.554L179.965 49.8955L180 189.904ZM180 189.904L179.879 50.0711L159.554 31.2713L46.2072 31.3511L46.4144 31.1596L46.3108 189.872V189.793L180 189.904Z" fill="#263238"/>
<path d="M82.4701 52.7042L143.823 52.7042V48.6347L82.4701 48.6347V52.7042Z" fill="#DBDBDB"/>
<path d="M180 50.0875H159.555V31.176L180 50.0875Z" fill="#EBEBEB"/>
<path d="M87.1669 79.2927C87.159 81.5583 86.26 83.7439 84.6373 85.4422C83.0147 87.1404 80.7792 88.2354 78.3477 88.5231C75.9161 88.8107 73.4543 88.2713 71.4212 87.0055C69.3881 85.7397 67.9224 83.8338 67.2974 81.6431C66.6723 79.4524 66.9305 77.1263 68.0239 75.0986C69.1172 73.0708 70.9711 71.4797 73.24 70.6218C75.5088 69.7639 78.0378 69.6977 80.3555 70.4356C82.6733 71.1736 84.6216 72.6653 85.8373 74.6327C86.7126 76.0523 87.171 77.6588 87.1669 79.2927Z" fill="#455A64"/>
<path d="M85.8375 74.6324L77.0309 79.2924V69.9244C78.8175 69.9223 80.573 70.3566 82.1196 71.1833C83.6661 72.0101 84.9488 73.2 85.8375 74.6324Z" fill="white"/>
<path d="M84.0418 79.2919C84.0418 80.5734 83.6306 81.8261 82.8602 82.8917C82.0899 83.9572 80.9949 84.7877 79.7139 85.2781C78.4328 85.7685 77.0232 85.8968 75.6632 85.6468C74.3032 85.3967 73.0541 84.7797 72.0736 83.8735C71.0932 82.9674 70.4254 81.8128 70.1549 80.556C69.8844 79.2991 70.0232 77.9963 70.5538 76.8123C71.0845 75.6284 71.9831 74.6164 73.136 73.9045C74.289 73.1925 75.6444 72.8125 77.031 72.8125C78.8904 72.8125 80.6736 73.4951 81.9884 74.7103C83.3032 75.9254 84.0418 77.5735 84.0418 79.2919Z" fill="white"/>
<path d="M79.9491 77.8397H74.1125V78.6057H79.9491V77.8397Z" fill="#263238"/>
<path d="M81.3997 79.9626H72.6621V80.7287H81.3997V79.9626Z" fill="#A6A6A6"/>
<path d="M87.1671 103.486C87.1676 103.945 87.133 104.404 87.0635 104.859C86.685 107.314 85.2905 109.538 83.1736 111.062C81.0568 112.586 78.3827 113.291 75.7142 113.03C73.0458 112.768 70.5912 111.56 68.8671 109.66C67.143 107.76 66.2839 105.315 66.4706 102.841C66.6574 100.367 67.8755 98.0569 69.8684 96.3963C71.8613 94.7356 74.4736 93.8542 77.1554 93.9378C79.8373 94.0214 82.3795 95.0633 84.2468 96.8443C86.1142 98.6252 87.1611 101.006 87.1671 103.486Z" fill="#455A64"/>
<path d="M87.1672 103.487C87.1677 103.946 87.133 104.405 87.0636 104.859L77.0309 103.487V94.119C78.3633 94.1147 79.6834 94.3542 80.9152 94.8235C82.1471 95.2928 83.2664 95.9827 84.2085 96.8534C85.1507 97.7241 85.8971 98.7585 86.4049 99.897C86.9126 101.035 87.1718 102.256 87.1672 103.487Z" fill="white"/>
<path d="M84.0418 103.486C84.0418 104.768 83.6306 106.021 82.8602 107.086C82.0899 108.152 80.9949 108.982 79.7139 109.473C78.4328 109.963 77.0232 110.091 75.6632 109.841C74.3032 109.591 73.0541 108.974 72.0736 108.068C71.0932 107.162 70.4254 106.007 70.1549 104.751C69.8844 103.494 70.0232 102.191 70.5538 101.007C71.0845 99.823 71.9831 98.811 73.136 98.0991C74.289 97.3871 75.6444 97.0071 77.031 97.0071C78.8904 97.0071 80.6736 97.6897 81.9884 98.9048C83.3032 100.12 84.0418 101.768 84.0418 103.486Z" fill="white"/>
<path d="M79.9491 102.05H74.1125V102.816H79.9491V102.05Z" fill="#263238"/>
<path d="M81.3997 104.157H72.6621V104.923H81.3997V104.157Z" fill="#A6A6A6"/>
<path d="M139.351 79.2923C139.352 81.1857 138.732 83.0348 137.573 84.5961C136.414 86.1573 134.77 87.3573 132.858 88.0379C131.695 88.448 130.46 88.659 129.215 88.6603C127.205 88.6634 125.24 88.1154 123.567 87.0855C121.895 86.0556 120.591 84.5901 119.82 82.8748C119.049 81.1594 118.847 79.2713 119.238 77.4495C119.629 75.6278 120.597 73.9543 122.018 72.6409C123.439 71.3276 125.25 70.4336 127.221 70.072C129.192 69.7104 131.235 69.8976 133.091 70.6098C134.947 71.322 136.533 72.5272 137.647 74.0729C138.761 75.6185 139.354 77.435 139.351 79.2923Z" fill="#455A64"/>
<path d="M139.351 79.2925C139.352 81.1859 138.732 83.035 137.573 84.5962C136.414 86.1574 134.77 87.3574 132.858 88.038L129.215 79.2925V69.9245C130.547 69.9203 131.867 70.1597 133.099 70.629C134.331 71.0983 135.45 71.7882 136.392 72.6589C137.334 73.5297 138.081 74.5641 138.589 75.7025C139.096 76.841 139.355 78.0611 139.351 79.2925Z" fill="white"/>
<path d="M136.225 79.2919C136.225 80.5734 135.814 81.8261 135.044 82.8917C134.274 83.9572 133.179 84.7877 131.898 85.2781C130.617 85.7685 129.207 85.8968 127.847 85.6468C126.487 85.3967 125.238 84.7797 124.257 83.8735C123.277 82.9674 122.609 81.8128 122.339 80.556C122.068 79.2991 122.207 77.9963 122.738 76.8123C123.268 75.6284 124.167 74.6164 125.32 73.9045C126.473 73.1925 127.828 72.8125 129.215 72.8125C131.074 72.8125 132.857 73.4951 134.172 74.7103C135.487 75.9254 136.225 77.5735 136.225 79.2919Z" fill="white"/>
<path d="M132.133 77.8397H126.297V78.6057H132.133V77.8397Z" fill="#263238"/>
<path d="M133.601 79.9626H124.863V80.7287H133.601V79.9626Z" fill="#A6A6A6"/>
<path d="M139.351 103.486C139.343 105.752 138.444 107.937 136.821 109.636C135.199 111.334 132.963 112.429 130.532 112.717C128.1 113.004 125.638 112.465 123.605 111.199C121.572 109.933 120.106 108.027 119.481 105.837C118.856 103.646 119.115 101.32 120.208 99.292C121.301 97.2643 123.155 95.6732 125.424 94.8153C127.693 93.9573 130.222 93.8912 132.54 94.6291C134.857 95.3671 136.806 96.8588 138.021 98.8262C138.899 100.245 139.357 101.852 139.351 103.486Z" fill="#455A64"/>
<path d="M139.351 103.487C139.349 105.276 138.793 107.027 137.748 108.533C136.704 110.04 135.214 111.238 133.456 111.986C131.698 112.735 129.745 113.003 127.827 112.758C125.91 112.513 124.108 111.766 122.635 110.605L129.215 103.487V94.119C130.547 94.1147 131.867 94.3542 133.099 94.8235C134.331 95.2928 135.45 95.9827 136.392 96.8534C137.334 97.7241 138.081 98.7585 138.589 99.897C139.096 101.035 139.355 102.256 139.351 103.487Z" fill="white"/>
<path d="M136.225 103.486C136.225 104.768 135.814 106.021 135.044 107.086C134.274 108.152 133.179 108.982 131.898 109.473C130.617 109.963 129.207 110.091 127.847 109.841C126.487 109.591 125.238 108.974 124.257 108.068C123.277 107.162 122.609 106.007 122.339 104.751C122.068 103.494 122.207 102.191 122.738 101.007C123.268 99.823 124.167 98.811 125.32 98.0991C126.473 97.3871 127.828 97.0071 129.215 97.0071C131.074 97.0071 132.857 97.6897 134.172 98.9048C135.487 100.12 136.225 101.768 136.225 103.486Z" fill="white"/>
<path d="M132.133 102.05H126.297V102.816H132.133V102.05Z" fill="#263238"/>
<path d="M133.584 104.157H124.846V104.923H133.584V104.157Z" fill="#A6A6A6"/>
<path d="M107.129 76.4038H93.3488V77.122H107.129V76.4038Z" fill="#455A64"/>
<path d="M107.129 78.926H93.3488V79.6442H107.129V78.926Z" fill="#455A64"/>
<path d="M107.129 81.4463H93.3488V82.1645H107.129V81.4463Z" fill="#455A64"/>
<path d="M107.129 100.597H93.3488V101.315H107.129V100.597Z" fill="#455A64"/>
<path d="M107.129 103.119H93.3488V103.837H107.129V103.119Z" fill="#455A64"/>
<path d="M107.129 105.641H93.3488V106.359H107.129V105.641Z" fill="#455A64"/>
<path d="M159.313 76.4038H145.533V77.122H159.313V76.4038Z" fill="#455A64"/>
<path d="M159.313 78.926H145.533V79.6442H159.313V78.926Z" fill="#455A64"/>
<path d="M159.313 81.4463H145.533V82.1645H159.313V81.4463Z" fill="#455A64"/>
<path d="M159.313 100.597H145.533V101.315H159.313V100.597Z" fill="#455A64"/>
<path d="M159.313 103.119H145.533V103.837H159.313V103.119Z" fill="#455A64"/>
<path d="M159.313 105.641H145.533V106.359H159.313V105.641Z" fill="#455A64"/>
<path d="M107.889 126.117C116.523 125.957 125.019 125.989 133.601 125.925C142.183 125.861 150.731 125.925 159.313 126.117C150.679 126.292 142.166 126.26 133.601 126.324C125.036 126.388 116.385 126.292 107.889 126.117Z" fill="#263238"/>
<path d="M107.889 130.649C116.523 130.473 125.019 130.521 133.601 130.441C142.183 130.361 150.731 130.441 159.313 130.649C150.679 130.808 142.166 130.776 133.601 130.84C125.036 130.904 116.385 130.808 107.889 130.649Z" fill="#263238"/>
<path d="M107.889 135.165C116.523 134.989 125.019 135.037 133.601 134.957C142.183 134.877 150.731 134.957 159.313 135.165C150.679 135.34 142.166 135.292 133.601 135.356C125.036 135.42 116.385 135.34 107.889 135.165Z" fill="#263238"/>
<path d="M107.889 139.681C116.523 139.506 125.019 139.553 133.601 139.49C142.183 139.426 150.731 139.49 159.313 139.681C150.679 139.857 142.166 139.809 133.601 139.889C125.036 139.968 116.385 139.857 107.889 139.681Z" fill="#263238"/>
<path d="M107.889 144.198C116.385 144.054 125.019 144.054 133.653 144.054C142.287 144.054 150.783 144.054 159.365 144.246C150.731 144.421 142.218 144.373 133.653 144.453C125.088 144.533 116.385 144.373 107.889 144.198Z" fill="#263238"/>
<path d="M107.889 148.714C112.344 148.555 116.816 148.586 121.289 148.523C125.761 148.459 130.216 148.523 134.689 148.714C130.216 148.89 125.744 148.842 121.289 148.922C116.834 149.001 112.344 148.842 107.889 148.714Z" fill="#263238"/>
<path d="M66.8947 161.402C82.2978 161.226 97.7007 161.274 113.104 161.21C128.507 161.146 143.91 161.21 159.313 161.402C143.91 161.577 128.507 161.529 113.104 161.609C97.7007 161.689 82.2978 161.609 66.8947 161.402Z" fill="#263238"/>
<path d="M66.8947 165.919C82.2978 165.759 97.7007 165.791 113.104 165.727C128.507 165.663 143.91 165.727 159.313 165.919C143.91 166.094 128.507 166.046 113.104 166.126C97.7007 166.206 82.2978 166.094 66.8947 165.919Z" fill="#263238"/>
<path d="M66.8947 170.434C74.9243 170.274 82.9539 170.306 90.9835 170.243C99.0131 170.179 107.043 170.243 115.055 170.434C107.043 170.61 99.0131 170.578 90.9835 170.642C82.9539 170.705 74.9416 170.61 66.8947 170.434Z" fill="#263238"/>
<path d="M93.7808 143.176C94.3597 142.256 94.7847 141.261 95.0414 140.224C94.7924 141.263 94.3669 142.26 93.7808 143.176Z" fill="#455A64"/>
<path d="M100.239 137.75C100.239 137.926 100.239 138.085 100.239 138.245C100.239 138.404 100.239 138.708 100.239 138.931C100.247 139.011 100.247 139.091 100.239 139.17C100.248 139.25 100.248 139.33 100.239 139.41V139.49C100.239 139.665 100.239 139.841 100.152 140.016C100.066 140.192 100.152 140.128 100.152 140.192C100.152 140.256 100.153 140.639 100.014 140.862C99.8762 141.085 99.928 141.277 99.8762 141.469C99.8244 141.66 99.8762 141.66 99.8762 141.756C99.8762 141.852 99.7898 142.059 99.738 142.203C99.7081 142.322 99.6677 142.44 99.6172 142.554C99.4963 142.905 99.3582 143.256 99.2027 143.591L99.0474 143.942C98.9438 144.15 98.8575 144.341 98.7366 144.533C98.6642 144.698 98.5775 144.858 98.4775 145.011C98.3739 145.203 98.253 145.394 98.1321 145.586L97.8732 145.969L93.6425 143.719L93.9879 143.176C94.574 142.26 94.9995 141.263 95.2484 140.224C95.3127 140.015 95.3589 139.801 95.3866 139.585C95.4392 139.37 95.4738 139.151 95.4902 138.931C95.4902 138.708 95.4902 138.484 95.4902 138.245C95.4902 138.005 95.4902 137.926 95.4902 137.766C95.4992 137.644 95.4992 137.521 95.4902 137.399C95.4988 137.293 95.4988 137.186 95.4902 137.08V136.968C95.4902 136.761 95.4902 136.553 95.4902 136.346C95.5068 136.245 95.5068 136.143 95.4902 136.042C95.4902 135.803 95.4038 135.564 95.352 135.34C95.2482 134.895 95.1097 134.458 94.9376 134.032C94.9376 133.936 94.9376 133.824 94.7994 133.728C94.7609 133.619 94.7147 133.513 94.6612 133.409L94.5232 133.106L94.4023 132.899C94.4023 132.755 94.2469 132.611 94.1605 132.468C94.0742 132.324 93.936 132.117 93.8151 131.941C93.5597 131.571 93.283 131.214 92.9863 130.872C92.5301 130.36 92.0275 129.885 91.484 129.451C91.1173 129.163 90.7308 128.896 90.327 128.653L92.7791 124.743C93.1417 124.951 93.4871 125.19 93.8324 125.414L94.454 125.861L95.0585 126.339L95.5765 126.802L95.6628 126.882L96.1636 127.361L96.2844 127.488L96.6989 127.951L97.1997 128.526L97.6487 129.1V129.196L97.9595 129.643L98.0631 129.786L98.4257 130.409C98.6834 130.827 98.9141 131.258 99.1164 131.702C99.1164 131.702 99.3236 132.164 99.4099 132.388L99.669 133.058C99.669 133.25 99.8071 133.441 99.8589 133.649V133.904C99.9798 134.351 100.066 134.798 100.152 135.244C100.152 135.484 100.153 135.707 100.239 135.947C100.247 135.978 100.247 136.011 100.239 136.042C100.239 136.282 100.239 136.521 100.239 136.745V136.84C100.239 137.271 100.239 137.511 100.239 137.75Z" fill="#455A64"/>
<path d="M90.0333 128.654C90.4372 128.897 90.8236 129.163 91.1903 129.452C90.8104 129.165 90.4823 128.91 90.0333 128.654Z" fill="#A6A6A6"/>
<path d="M92.6927 130.871C92.2319 130.363 91.7296 129.888 91.1903 129.451C91.7338 129.884 92.2365 130.359 92.6927 130.871Z" fill="#A6A6A6"/>
<path d="M94.6442 134.031C94.8164 134.458 94.9549 134.895 95.0587 135.34C94.9379 134.893 94.7996 134.478 94.6442 134.031Z" fill="#A6A6A6"/>
<path d="M95.3347 137.399C95.3427 137.521 95.3427 137.644 95.3347 137.766C95.3347 137.926 95.3347 138.085 95.3347 138.245C95.3347 138.085 95.3347 137.926 95.3347 137.75C95.3424 137.633 95.3424 137.516 95.3347 137.399Z" fill="#A6A6A6"/>
<path d="M91.847 124.393L89.4122 128.303C87.7438 127.416 85.8624 126.927 83.9383 126.882V122.35C86.718 122.408 89.4372 123.111 91.847 124.393Z" fill="#263238"/>
<path d="M69.1738 129.981L69.312 129.771L69.1738 129.998V129.981Z" fill="white"/>
<path d="M69.312 129.77C70.0015 128.711 70.831 127.736 71.7813 126.866C70.835 127.739 70.0059 128.714 69.312 129.77Z" fill="white"/>
<path d="M71.7817 126.867C72.148 126.512 72.5403 126.182 72.9559 125.877C72.5587 126.196 72.1616 126.5 71.7817 126.867Z" fill="white"/>
<path d="M77.0826 123.563C77.8308 123.264 78.6049 123.024 79.3965 122.845C78.6079 123.033 77.8346 123.273 77.0826 123.563Z" fill="white"/>
<path d="M83.1954 122.366V126.882H82.9536H82.4183C82.0211 126.882 81.624 126.978 81.2441 127.042L80.6742 127.169L80.2425 127.281H80.1043L79.569 127.457L79.0683 127.648C78.5431 127.852 78.0352 128.092 77.5487 128.366C77.2562 128.527 76.9737 128.703 76.7026 128.893C76.6295 128.936 76.5602 128.984 76.4954 129.036L76.2536 129.196L75.8392 129.515C75.6699 129.645 75.5084 129.784 75.3556 129.93L74.9239 130.361C74.7858 130.521 74.6304 130.68 74.5095 130.84C74.3887 130.999 74.216 131.207 74.0778 131.398C73.9397 131.59 73.8016 131.781 73.6807 131.973L73.3353 132.563C73.3353 132.707 73.1799 132.867 73.1108 133.026L72.9554 133.345C72.9226 133.444 72.8823 133.54 72.8346 133.633C72.8346 133.792 72.7136 133.968 72.6618 134.143C72.61 134.319 72.541 134.51 72.4892 134.702C72.4374 134.893 72.4892 135.021 72.3683 135.181C72.2474 135.34 72.3683 135.452 72.3683 135.596C72.3683 135.739 72.3683 135.739 72.3683 135.819C72.3683 135.899 72.3683 135.979 72.3683 136.058C72.3598 136.181 72.3598 136.303 72.3683 136.426C72.3597 136.51 72.3597 136.596 72.3683 136.681C72.3591 136.846 72.3591 137.011 72.3683 137.176H67.4814C67.5095 134.736 68.1728 132.338 69.4155 130.186C69.5191 129.978 69.64 129.787 69.7608 129.595L69.899 129.372C70.5929 128.315 71.422 127.34 72.3683 126.467C72.7482 126.116 73.1454 125.797 73.5425 125.478C74.7922 124.529 76.1819 123.75 77.6696 123.164C78.4216 122.874 79.1948 122.634 79.9835 122.445C81.0486 122.321 82.1245 122.294 83.1954 122.366Z" fill="white"/>
<path d="M68.8116 130.584C67.569 132.737 66.9056 135.135 66.8776 137.575C66.9117 135.136 67.5747 132.739 68.8116 130.584Z" fill="#C7C7C7"/>
<path d="M76.9964 146.799L74.5444 150.725C72.2684 149.375 70.3824 147.533 69.0495 145.359C67.7167 143.185 66.9771 140.743 66.8947 138.245H71.7988C71.8788 139.947 72.3909 141.609 73.2938 143.095C74.1967 144.58 75.4651 145.849 76.9964 146.799Z" fill="#37474F"/>
<path d="M97.2517 146.543C95.7208 148.59 93.6746 150.262 91.2892 151.416C88.9037 152.57 86.2506 153.17 83.5582 153.166C80.614 153.177 77.7211 152.455 75.1833 151.075L77.6353 147.165C80.1338 148.512 83.0811 148.962 85.9155 148.429C88.7498 147.896 91.273 146.418 93.0039 144.277L97.2517 146.543Z" fill="#EBEBEB"/>
<path d="M77.566 137.894L75.442 139.489H77.566C77.5879 139.487 77.6099 139.489 77.6308 139.495C77.6516 139.502 77.6709 139.512 77.6872 139.525C77.7036 139.539 77.7165 139.556 77.7254 139.574C77.7343 139.593 77.7388 139.613 77.7387 139.633C77.7387 139.675 77.7205 139.716 77.6881 139.746C77.6557 139.776 77.6118 139.793 77.566 139.793H74.9413C74.8966 139.807 74.8478 139.807 74.8031 139.793C74.788 139.779 74.7759 139.763 74.7677 139.745C74.7595 139.728 74.7552 139.708 74.7552 139.689C74.7552 139.67 74.7595 139.65 74.7677 139.633C74.7759 139.615 74.788 139.599 74.8031 139.585L77.307 137.782C77.4789 137.662 77.6194 137.508 77.718 137.331C77.8167 137.154 77.871 136.959 77.8769 136.76C77.8819 136.643 77.8601 136.525 77.8131 136.415C77.766 136.306 77.6947 136.206 77.6037 136.124C77.5126 136.041 77.4038 135.977 77.2843 135.935C77.1648 135.894 77.0373 135.876 76.9098 135.883C76.5948 135.883 76.2897 135.985 76.0464 136.17L75.7874 136.361C75.7729 136.375 75.7555 136.387 75.7362 136.394C75.7169 136.402 75.6961 136.406 75.6751 136.406C75.6542 136.406 75.6334 136.402 75.6141 136.394C75.5948 136.387 75.5774 136.375 75.5629 136.361C75.5477 136.348 75.5357 136.332 75.5275 136.314C75.5192 136.296 75.515 136.277 75.515 136.258C75.515 136.238 75.5192 136.219 75.5275 136.201C75.5357 136.184 75.5477 136.167 75.5629 136.154L75.822 135.963C76.1258 135.737 76.5031 135.613 76.8926 135.611C77.0951 135.607 77.2958 135.647 77.4788 135.727C77.6617 135.807 77.8217 135.926 77.9459 136.074C78.1102 136.282 78.1952 136.535 78.1877 136.792C78.1407 137.22 77.9182 137.614 77.566 137.894Z" fill="#263238"/>
<path d="M81.8487 135.947C82.0825 136.284 82.1972 136.68 82.1768 137.08C82.1934 137.26 82.1934 137.442 82.1768 137.622C82.0751 138.161 81.8254 138.667 81.4516 139.091C81.3053 139.273 81.1187 139.424 80.9043 139.534C80.69 139.644 80.4526 139.71 80.2082 139.729C80.0207 139.724 79.8376 139.676 79.6749 139.59C79.5122 139.503 79.3752 139.381 79.2758 139.234C79.0498 138.894 78.9358 138.5 78.9477 138.101C78.9306 137.926 78.9306 137.75 78.9477 137.575C79.0465 137.03 79.2964 136.519 79.6729 136.09C79.8192 135.909 80.0057 135.757 80.2201 135.647C80.4345 135.537 80.6719 135.471 80.9163 135.452C81.1037 135.457 81.2869 135.505 81.4496 135.591C81.6122 135.678 81.7493 135.8 81.8487 135.947ZM81.8487 137.08C81.8614 136.737 81.7654 136.399 81.5724 136.106C81.5006 136.001 81.4015 135.913 81.2839 135.852C81.1663 135.791 81.034 135.757 80.899 135.755C80.7014 135.773 80.5102 135.829 80.3376 135.92C80.1651 136.011 80.0151 136.134 79.8974 136.282C79.5571 136.669 79.3311 137.131 79.2412 137.622C79.224 137.782 79.224 137.942 79.2412 138.101C79.2285 138.444 79.3246 138.782 79.5175 139.075C79.5869 139.183 79.6854 139.272 79.8036 139.333C79.9217 139.395 80.0553 139.427 80.1909 139.426C80.3885 139.408 80.5798 139.352 80.7524 139.261C80.9249 139.17 81.0748 139.047 81.1925 138.899C81.5294 138.516 81.7553 138.06 81.8487 137.575C81.8653 137.41 81.8653 137.244 81.8487 137.08Z" fill="#263238"/>
<path d="M86.4762 135.947C86.7101 136.284 86.8247 136.68 86.8043 137.08C86.821 137.26 86.821 137.442 86.8043 137.622C86.7139 138.164 86.4629 138.673 86.0791 139.091C85.9328 139.273 85.7463 139.424 85.5319 139.534C85.3175 139.644 85.0802 139.71 84.8358 139.729C84.6473 139.728 84.4622 139.682 84.2988 139.596C84.1353 139.509 83.9991 139.384 83.9033 139.234C83.6645 138.899 83.5438 138.503 83.5579 138.101C83.5579 137.926 83.5579 137.75 83.5579 137.575C83.6618 137.029 83.9177 136.517 84.3005 136.09C84.4468 135.909 84.6333 135.757 84.8477 135.647C85.062 135.537 85.2994 135.471 85.5438 135.452C85.7323 135.453 85.9173 135.499 86.0808 135.586C86.2443 135.672 86.3805 135.797 86.4762 135.947ZM86.4762 137.08C86.4889 136.737 86.3929 136.399 86.2 136.106C86.1282 136.001 86.029 135.913 85.9114 135.852C85.7938 135.791 85.6615 135.757 85.5265 135.755C85.329 135.773 85.1377 135.829 84.9652 135.92C84.7926 136.011 84.6426 136.134 84.5249 136.282C84.1847 136.669 83.9586 137.131 83.8688 137.622C83.8518 137.782 83.8518 137.942 83.8688 138.101C83.8561 138.444 83.9522 138.782 84.1451 139.075C84.2144 139.183 84.313 139.272 84.4311 139.333C84.5493 139.395 84.6828 139.427 84.8185 139.426C85.016 139.408 85.2074 139.352 85.3799 139.261C85.5525 139.17 85.7024 139.047 85.82 138.899C86.157 138.516 86.3828 138.06 86.4762 137.575C86.4982 137.411 86.504 137.245 86.4935 137.08H86.4762Z" fill="#263238"/>
<path d="M89.5502 135.628L89.0839 138.07L92.3649 135.484C92.3808 135.472 92.3991 135.462 92.419 135.456C92.4388 135.45 92.4598 135.448 92.4806 135.449C92.5015 135.451 92.5218 135.456 92.5405 135.465C92.5591 135.474 92.5757 135.486 92.5893 135.5C92.6029 135.515 92.6132 135.532 92.6197 135.55C92.6262 135.569 92.6288 135.588 92.6272 135.607C92.6256 135.627 92.6199 135.645 92.6105 135.663C92.601 135.68 92.588 135.695 92.5721 135.708L90.4654 137.304L91.9504 139.426C91.9655 139.44 91.9777 139.456 91.9859 139.474C91.9941 139.491 91.9983 139.511 91.9983 139.53C91.9983 139.549 91.9941 139.569 91.9859 139.586C91.9777 139.604 91.9655 139.62 91.9504 139.634H91.8641C91.8426 139.644 91.819 139.649 91.795 139.649C91.7711 139.649 91.7474 139.644 91.7259 139.634L90.2581 137.543L89.0321 138.501L88.8249 139.586C88.8144 139.617 88.7939 139.644 88.7662 139.664C88.7384 139.684 88.7047 139.696 88.6695 139.697C88.6489 139.694 88.6293 139.686 88.6119 139.675C88.5945 139.664 88.5796 139.65 88.5683 139.634C88.557 139.617 88.5495 139.599 88.5461 139.58C88.5427 139.56 88.5436 139.541 88.5486 139.522L89.2911 135.564C89.293 135.544 89.2997 135.524 89.3106 135.506C89.3216 135.488 89.3366 135.472 89.3546 135.46C89.3726 135.448 89.3933 135.44 89.4151 135.436C89.4369 135.432 89.4594 135.432 89.4811 135.436C89.5147 135.456 89.5399 135.486 89.5525 135.521C89.5651 135.556 89.5643 135.594 89.5502 135.628Z" fill="#263238"/>
</svg>
