<svg width="241" height="179" viewBox="0 0 241 179" fill="none" xmlns="http://www.w3.org/2000/svg">
<path d="M226 22.2704H1.19055V178H226V22.2704Z" fill="white" stroke="#263238" stroke-linecap="round" stroke-linejoin="round"/>
<path d="M225.993 22.2704H40.3635V36.8723H225.993V22.2704Z" fill="#D9D9D9" stroke="#263238" stroke-linecap="round" stroke-linejoin="round"/>
<path d="M225.993 22.2704H79.7341V36.8723H225.993V22.2704Z" fill="#A8A8A8" stroke="#263238" stroke-linecap="round" stroke-linejoin="round"/>
<path d="M225.993 8H1V22.602H225.993V8Z" fill="#263238" stroke="#263238" stroke-linecap="round" stroke-linejoin="round"/>
<path d="M157.204 18.1889H10.9167C10.2742 18.1889 9.65795 17.856 9.2036 17.2634C8.74926 16.6708 8.49402 15.8671 8.49402 15.029C8.49402 14.6145 8.55673 14.204 8.67857 13.8212C8.80041 13.4383 8.97897 13.0906 9.20404 12.7979C9.4291 12.5052 9.69623 12.2733 9.99013 12.1155C10.284 11.9577 10.5989 11.8771 10.9167 11.8783H157.204C157.845 11.8783 158.46 12.21 158.915 12.8006C159.369 13.3912 159.625 14.1926 159.627 15.029C159.625 15.8663 159.369 16.6687 158.915 17.2607C158.461 17.8528 157.846 18.1865 157.204 18.1889Z" fill="#A8A8A8" stroke="#263238" stroke-linecap="round" stroke-linejoin="round"/>
<path d="M201.364 18.1061C202.487 18.1061 203.398 16.9182 203.398 15.4529C203.398 13.9876 202.487 12.7997 201.364 12.7997C200.24 12.7997 199.329 13.9876 199.329 15.4529C199.329 16.9182 200.24 18.1061 201.364 18.1061Z" fill="white" stroke="#263238" stroke-linecap="round" stroke-linejoin="round"/>
<path d="M211.881 15.4528C211.882 14.9254 211.763 14.4094 211.54 13.9701C211.316 13.5309 210.997 13.1882 210.624 12.9856C210.251 12.7829 209.84 12.7294 209.443 12.8318C209.046 12.9343 208.682 13.188 208.396 13.5609C208.11 13.9338 207.916 14.4091 207.837 14.9264C207.758 15.4437 207.799 15.9798 207.955 16.4667C208.11 16.9536 208.373 17.3693 208.71 17.6611C209.046 17.953 209.442 18.1078 209.846 18.106C210.386 18.106 210.903 17.8265 211.285 17.3289C211.666 16.8313 211.881 16.1564 211.881 15.4528Z" fill="white" stroke="#263238" stroke-linecap="round" stroke-linejoin="round"/>
<path d="M218.323 18.1061C219.446 18.1061 220.357 16.9182 220.357 15.4529C220.357 13.9876 219.446 12.7997 218.323 12.7997C217.199 12.7997 216.288 13.9876 216.288 15.4529C216.288 16.9182 217.199 18.1061 218.323 18.1061Z" fill="white" stroke="#263238" stroke-linecap="round" stroke-linejoin="round"/>
<path d="M15.7126 84.621H40.7095V62.4923H26.2016L24.7254 57.0938H15.7126V84.621Z" fill="#D9D9D9" stroke="#B5B5B5" stroke-miterlimit="10"/>
<path d="M15.7126 127.358H40.7095V105.23H26.2016L24.7254 99.8311H15.7126V127.358Z" fill="#D9D9D9" stroke="#B5B5B5" stroke-miterlimit="10"/>
<path d="M15.7126 170.096H40.7095V147.967H26.2016L24.7254 142.559H15.7126V170.096Z" fill="#D9D9D9" stroke="#B5B5B5" stroke-miterlimit="10"/>
<path d="M50.4427 84.621H75.4326V62.4923H60.9246L59.4555 57.0938H50.4427V84.621Z" fill="#D9D9D9" stroke="#B5B5B5" stroke-miterlimit="10"/>
<path d="M50.4427 127.358H75.4326V105.23H60.9246L59.4555 99.8311H50.4427V127.358Z" fill="#D9D9D9" stroke="#B5B5B5" stroke-miterlimit="10"/>
<path d="M50.4427 170.096H75.4326V147.967H60.9246L59.4555 142.559H50.4427V170.096Z" fill="#D9D9D9" stroke="#B5B5B5" stroke-miterlimit="10"/>
<path d="M85.1656 84.621H110.155V62.4923H95.6546L94.1784 57.0938H85.1656V84.621Z" fill="#D9D9D9" stroke="#B5B5B5" stroke-miterlimit="10"/>
<path d="M85.1656 127.358H110.155V105.23H95.6546L94.1784 99.8311H85.1656V127.358Z" fill="#D9D9D9" stroke="#B5B5B5" stroke-miterlimit="10"/>
<path d="M85.1656 170.096H110.155V147.967H95.6546L94.1784 142.559H85.1656V170.096Z" fill="#D9D9D9" stroke="#B5B5B5" stroke-miterlimit="10"/>
<path d="M119.889 84.621H144.886V62.4923H130.378L128.902 57.0938H119.889V84.621Z" fill="#D9D9D9" stroke="#B5B5B5" stroke-miterlimit="10"/>
<path d="M119.889 127.358H144.886V105.23H130.378L128.902 99.8311H119.889V127.358Z" fill="#D9D9D9" stroke="#B5B5B5" stroke-miterlimit="10"/>
<path d="M119.889 170.096H144.886V147.967H130.378L128.902 142.559H119.889V170.096Z" fill="#D9D9D9" stroke="#B5B5B5" stroke-miterlimit="10"/>
<path d="M154.619 84.621H179.609V62.4923H165.101L163.632 57.0938H154.619V84.621Z" fill="#D9D9D9" stroke="#B5B5B5" stroke-miterlimit="10"/>
<path d="M154.619 127.358H179.609V105.23H165.101L163.632 99.8311H154.619V127.358Z" fill="#D9D9D9" stroke="#B5B5B5" stroke-miterlimit="10"/>
<path d="M154.619 170.096H179.609V147.967H165.101L163.632 142.559H154.619V170.096Z" fill="#D9D9D9" stroke="#B5B5B5" stroke-miterlimit="10"/>
<path d="M189.342 84.621H214.339V62.4923H199.831L198.355 57.0938H189.342V84.621Z" fill="#D9D9D9" stroke="#B5B5B5" stroke-miterlimit="10"/>
<path d="M189.342 127.358H214.339V105.23H199.831L198.355 99.8311H189.342V127.358Z" fill="#D9D9D9" stroke="#B5B5B5" stroke-miterlimit="10"/>
<path d="M189.342 170.096H214.339V147.967H199.831L198.355 142.559H189.342V170.096Z" fill="#D9D9D9" stroke="#B5B5B5" stroke-miterlimit="10"/>
<path opacity="0.3" d="M155.657 53.0312H65.6007V156.673H155.657V53.0312Z" fill="black"/>
<path d="M157.917 47.734H67.8608V151.376H157.917V47.734Z" fill="white" stroke="#263238" stroke-linecap="round" stroke-linejoin="round"/>
<path d="M157.917 47.734H67.8608V55.1409H157.917V47.734Z" fill="#263238" stroke="#263238" stroke-linecap="round" stroke-linejoin="round"/>
<path d="M107.26 92.1201V81.194C107.26 79.2075 107.865 77.3025 108.942 75.8978C110.019 74.4932 111.479 73.7041 113.002 73.7041C114.525 73.7041 115.986 74.4932 117.063 75.8978C118.14 77.3025 118.745 79.2075 118.745 81.194V87.5783H121.033V81.194C121.033 78.4159 120.187 75.7516 118.681 73.7872C117.175 71.8228 115.132 70.7192 113.002 70.7192C110.872 70.7192 108.829 71.8228 107.323 73.7872C105.817 75.7516 104.971 78.4159 104.971 81.194V92.1201H107.26Z" fill="white" stroke="#263238" stroke-linecap="round" stroke-linejoin="round"/>
<path d="M121.655 91.0514H104.117V109.974H121.655V91.0514Z" fill="#ECEFF1" stroke="#263238" stroke-linecap="round" stroke-linejoin="round"/>
<path d="M124.155 84.1145L125.292 80.7242" stroke="#263238" stroke-linecap="round" stroke-linejoin="round"/>
<path d="M124.317 88.1312H128.541" stroke="#263238" stroke-linecap="round" stroke-linejoin="round"/>
<path d="M123.83 91.9451L126.104 95.1234" stroke="#263238" stroke-linecap="round" stroke-linejoin="round"/>
<path d="M114.711 98.9098C114.718 98.4667 114.634 98.0293 114.468 97.6424C114.302 97.2556 114.061 96.9333 113.768 96.7087C113.475 96.4841 113.141 96.3653 112.801 96.3644C112.462 96.3635 112.128 96.4806 111.834 96.7037C111.54 96.9268 111.298 97.2478 111.131 97.6337C110.964 98.0197 110.878 98.4567 110.884 98.8998C110.889 99.343 110.985 99.7763 111.161 100.155C111.337 100.534 111.587 100.845 111.886 101.056L111.568 105.359H114.019L113.701 101.056C114.004 100.854 114.259 100.546 114.437 100.168C114.615 99.7891 114.71 99.354 114.711 98.9098Z" fill="#263238" stroke="#263238" stroke-linecap="round" stroke-linejoin="round"/>
<path d="M144.285 117.685H81.4859C79.9256 117.685 78.6606 119.335 78.6606 121.37V130.113C78.6606 132.148 79.9256 133.798 81.4859 133.798H144.285C145.846 133.798 147.111 132.148 147.111 130.113V121.37C147.111 119.335 145.846 117.685 144.285 117.685Z" fill="white" stroke="#263238" stroke-linecap="round" stroke-linejoin="round"/>
<path d="M85.3069 126.253C85.2099 126.229 85.118 126.178 85.038 126.103C84.958 126.027 84.892 125.93 84.8446 125.817C84.7972 125.704 84.7698 125.578 84.7642 125.45C84.7587 125.321 84.7752 125.193 84.8125 125.074L84.8478 124.954C84.8761 124.835 84.9235 124.726 84.9869 124.634C85.0502 124.541 85.1281 124.468 85.2151 124.418C85.3022 124.368 85.3964 124.344 85.4915 124.345C85.5865 124.347 85.6802 124.376 85.7661 124.429C86.3419 124.718 86.8896 125.095 87.3977 125.553C87.2174 124.755 87.113 123.932 87.0869 123.102C87.0811 122.976 87.0951 122.851 87.128 122.732C87.1609 122.614 87.212 122.506 87.2782 122.415C87.3443 122.323 87.4242 122.25 87.5127 122.201C87.6013 122.151 87.6968 122.125 87.7932 122.125H87.8921C87.9885 122.125 88.084 122.151 88.1725 122.201C88.2611 122.25 88.341 122.323 88.4071 122.415C88.4733 122.506 88.5244 122.614 88.5573 122.732C88.5902 122.851 88.6042 122.976 88.5984 123.102C88.5715 123.932 88.4695 124.754 88.2947 125.553C88.8038 125.103 89.3484 124.726 89.9192 124.429C90.0059 124.374 90.1006 124.345 90.1968 124.344C90.293 124.342 90.3882 124.368 90.4758 124.42C90.5634 124.472 90.6412 124.548 90.7037 124.644C90.7662 124.739 90.8118 124.851 90.8375 124.972V125.055C90.8788 125.174 90.8989 125.303 90.8962 125.433C90.8934 125.564 90.8679 125.691 90.8216 125.807C90.7753 125.922 90.7094 126.023 90.6289 126.1C90.5484 126.177 90.4555 126.229 90.3572 126.253C89.7643 126.46 89.1553 126.577 88.5419 126.603C89.0442 127.085 89.4996 127.645 89.8981 128.27C89.9563 128.365 89.9997 128.474 90.0255 128.591C90.0514 128.707 90.0593 128.83 90.0488 128.95C90.0383 129.071 90.0096 129.188 89.9643 129.294C89.9191 129.4 89.8581 129.494 89.785 129.569L89.7074 129.652C89.6315 129.736 89.5421 129.797 89.4459 129.829C89.3496 129.862 89.249 129.866 89.1513 129.842C89.0537 129.817 88.9615 129.764 88.8817 129.686C88.8019 129.609 88.7365 129.509 88.6902 129.394C88.3506 128.715 88.0688 127.989 87.8497 127.229C87.6186 127.987 87.3299 128.712 86.988 129.394C86.9417 129.509 86.8763 129.609 86.7965 129.686C86.7167 129.764 86.6246 129.817 86.5269 129.842C86.4293 129.866 86.3286 129.862 86.2324 129.829C86.1361 129.797 86.0468 129.736 85.9709 129.652L85.9003 129.569C85.8266 129.495 85.7651 129.402 85.7192 129.296C85.6733 129.19 85.6439 129.073 85.6327 128.952C85.6215 128.832 85.6288 128.709 85.6541 128.592C85.6794 128.475 85.7223 128.366 85.7802 128.27C86.1878 127.645 86.6447 127.076 87.1434 126.575C86.5232 126.571 85.906 126.462 85.3069 126.253Z" fill="#263238"/>
<path d="M92.4692 126.253C92.3721 126.229 92.2802 126.178 92.2003 126.103C92.1203 126.027 92.0542 125.93 92.0068 125.817C91.9595 125.704 91.932 125.578 91.9265 125.45C91.9209 125.321 91.9374 125.193 91.9747 125.074L92.0101 124.954C92.0383 124.835 92.0857 124.726 92.1491 124.634C92.2125 124.541 92.2903 124.468 92.3774 124.418C92.4644 124.368 92.5587 124.344 92.6537 124.345C92.7487 124.347 92.8424 124.376 92.9283 124.429C93.5042 124.718 94.0518 125.095 94.5599 125.553C94.3797 124.755 94.2753 123.932 94.2491 123.102C94.2433 122.976 94.2573 122.851 94.2902 122.732C94.3231 122.614 94.3742 122.506 94.4404 122.415C94.5066 122.323 94.5864 122.25 94.675 122.201C94.7636 122.151 94.859 122.125 94.9554 122.125H95.0119C95.1084 122.125 95.2038 122.151 95.2924 122.201C95.381 122.25 95.4608 122.323 95.527 122.415C95.5932 122.506 95.6443 122.614 95.6772 122.732C95.7101 122.851 95.7241 122.976 95.7183 123.102C95.6913 123.932 95.5894 124.754 95.4146 125.553C95.9236 125.103 96.4683 124.726 97.0391 124.429C97.1271 124.383 97.2212 124.361 97.3158 124.364C97.4105 124.367 97.5037 124.394 97.59 124.445C97.6763 124.495 97.7539 124.568 97.8183 124.659C97.8826 124.749 97.9323 124.856 97.9644 124.972V125.055C98.0058 125.174 98.0258 125.303 98.0231 125.433C98.0203 125.564 97.9948 125.691 97.9485 125.807C97.9022 125.922 97.8363 126.023 97.7558 126.1C97.6753 126.177 97.5824 126.229 97.4841 126.253C96.8913 126.46 96.2822 126.577 95.6688 126.603C96.1712 127.085 96.6266 127.645 97.025 128.27C97.0833 128.365 97.1266 128.474 97.1524 128.591C97.1783 128.707 97.1862 128.83 97.1757 128.95C97.1652 129.071 97.1365 129.188 97.0912 129.294C97.046 129.4 96.985 129.494 96.912 129.569L96.8343 129.652C96.759 129.736 96.6702 129.797 96.5745 129.829C96.4787 129.862 96.3786 129.866 96.2815 129.841C96.1843 129.817 96.0928 129.764 96.0136 129.686C95.9344 129.609 95.8697 129.509 95.8242 129.394C95.4793 128.717 95.1949 127.991 94.9766 127.229C94.7455 127.987 94.4568 128.712 94.1149 129.394C94.0687 129.509 94.0032 129.609 93.9234 129.686C93.8436 129.764 93.7515 129.817 93.6538 129.842C93.5562 129.866 93.4555 129.862 93.3593 129.829C93.263 129.797 93.1737 129.736 93.0978 129.652L93.0272 129.569C92.9536 129.495 92.892 129.402 92.8461 129.296C92.8002 129.19 92.7708 129.073 92.7596 128.952C92.7485 128.832 92.7558 128.709 92.7811 128.592C92.8064 128.475 92.8492 128.366 92.9071 128.27C93.3147 127.645 93.7716 127.076 94.2703 126.575C93.6619 126.567 93.0568 126.459 92.4692 126.253Z" fill="#263238"/>
<path d="M99.6313 126.253C99.5378 126.221 99.4503 126.165 99.3741 126.088C99.2979 126.01 99.2346 125.913 99.1883 125.803C99.142 125.692 99.1135 125.571 99.1047 125.445C99.0958 125.32 99.1068 125.193 99.1369 125.074V124.954C99.1651 124.835 99.2126 124.726 99.2759 124.634C99.3393 124.541 99.4172 124.468 99.5042 124.418C99.5913 124.368 99.6855 124.344 99.7805 124.345C99.8756 124.347 99.9692 124.376 100.055 124.429C100.631 124.718 101.179 125.095 101.687 125.553C101.509 124.755 101.407 123.932 101.383 123.102C101.377 122.976 101.391 122.851 101.424 122.732C101.457 122.614 101.508 122.506 101.574 122.415C101.64 122.323 101.72 122.25 101.809 122.201C101.897 122.151 101.993 122.125 102.089 122.125H102.188C102.285 122.125 102.38 122.151 102.469 122.201C102.557 122.25 102.637 122.323 102.703 122.415C102.769 122.506 102.821 122.614 102.853 122.732C102.886 122.851 102.9 122.976 102.895 123.102C102.868 123.932 102.766 124.754 102.591 125.553C103.1 125.103 103.645 124.726 104.215 124.429C104.303 124.383 104.397 124.361 104.492 124.364C104.587 124.367 104.68 124.394 104.766 124.445C104.853 124.495 104.93 124.568 104.995 124.659C105.059 124.749 105.109 124.856 105.141 124.972V125.055C105.182 125.173 105.202 125.302 105.2 125.432C105.198 125.561 105.173 125.689 105.127 125.804C105.082 125.919 105.017 126.02 104.937 126.097C104.857 126.175 104.765 126.228 104.667 126.253C104.072 126.459 103.461 126.576 102.845 126.603C103.347 127.085 103.803 127.645 104.201 128.27C104.26 128.365 104.303 128.474 104.329 128.591C104.355 128.707 104.363 128.83 104.352 128.95C104.342 129.071 104.313 129.188 104.268 129.294C104.222 129.4 104.161 129.494 104.088 129.569L104.011 129.652C103.935 129.736 103.846 129.797 103.751 129.829C103.655 129.862 103.555 129.866 103.458 129.841C103.361 129.817 103.269 129.764 103.19 129.686C103.111 129.609 103.046 129.509 103 129.394C102.658 128.715 102.374 127.989 102.153 127.229C101.922 127.987 101.633 128.712 101.291 129.394C101.246 129.509 101.181 129.609 101.102 129.686C101.023 129.764 100.931 129.817 100.834 129.841C100.737 129.866 100.637 129.862 100.541 129.829C100.445 129.797 100.356 129.736 100.281 129.652L100.203 129.569C100.13 129.495 100.068 129.402 100.022 129.296C99.9765 129.19 99.9471 129.073 99.9359 128.952C99.9247 128.832 99.932 128.709 99.9573 128.592C99.9826 128.475 100.025 128.366 100.083 128.27C100.491 127.645 100.948 127.076 101.447 126.575C100.833 126.568 100.224 126.46 99.6313 126.253Z" fill="#263238"/>
<path d="M106.794 126.253C106.7 126.221 106.612 126.165 106.536 126.088C106.46 126.01 106.397 125.913 106.351 125.803C106.304 125.692 106.276 125.571 106.267 125.445C106.258 125.32 106.269 125.193 106.299 125.074V124.954C106.327 124.835 106.375 124.726 106.438 124.634C106.502 124.541 106.579 124.468 106.666 124.418C106.753 124.368 106.848 124.344 106.943 124.345C107.038 124.347 107.131 124.376 107.217 124.429C107.793 124.718 108.341 125.095 108.849 125.553C108.674 124.754 108.572 123.932 108.545 123.102C108.539 122.976 108.553 122.851 108.586 122.732C108.619 122.614 108.67 122.506 108.737 122.415C108.803 122.323 108.883 122.25 108.971 122.201C109.06 122.151 109.155 122.125 109.252 122.125H109.35C109.447 122.125 109.542 122.151 109.631 122.201C109.719 122.25 109.799 122.323 109.866 122.415C109.932 122.506 109.983 122.614 110.016 122.732C110.049 122.851 110.063 122.976 110.057 123.102C110.03 123.932 109.928 124.754 109.753 125.553C110.262 125.103 110.807 124.726 111.378 124.429C111.466 124.383 111.56 124.361 111.654 124.364C111.749 124.367 111.842 124.394 111.929 124.445C112.015 124.495 112.092 124.568 112.157 124.659C112.221 124.749 112.271 124.856 112.303 124.972V125.055C112.344 125.173 112.365 125.302 112.362 125.432C112.36 125.561 112.335 125.689 112.289 125.804C112.244 125.919 112.179 126.02 112.099 126.097C112.019 126.175 111.927 126.228 111.83 126.253C111.234 126.459 110.623 126.576 110.007 126.603C110.51 127.085 110.965 127.645 111.363 128.27C111.422 128.365 111.465 128.474 111.491 128.591C111.517 128.707 111.525 128.83 111.514 128.95C111.504 129.071 111.475 129.188 111.43 129.294C111.384 129.4 111.324 129.494 111.25 129.569L111.173 129.652C111.098 129.736 111.009 129.797 110.913 129.829C110.817 129.862 110.717 129.866 110.62 129.841C110.523 129.817 110.431 129.764 110.352 129.686C110.273 129.609 110.208 129.509 110.163 129.394C109.821 128.715 109.536 127.989 109.315 127.229C109.077 127.988 108.781 128.713 108.432 129.394C108.387 129.509 108.322 129.609 108.243 129.686C108.164 129.764 108.072 129.817 107.975 129.841C107.878 129.866 107.778 129.862 107.682 129.829C107.586 129.797 107.497 129.736 107.422 129.652L107.344 129.569C107.271 129.495 107.209 129.402 107.163 129.296C107.117 129.19 107.088 129.073 107.077 128.952C107.066 128.832 107.073 128.709 107.098 128.592C107.124 128.475 107.167 128.366 107.224 128.27C107.632 127.645 108.089 127.076 108.588 126.575C107.982 126.566 107.379 126.458 106.794 126.253Z" fill="#263238"/>
<path d="M113.956 126.253C113.862 126.221 113.775 126.165 113.698 126.088C113.622 126.01 113.559 125.913 113.513 125.803C113.466 125.692 113.438 125.571 113.429 125.445C113.42 125.32 113.431 125.193 113.461 125.074L113.497 124.954C113.53 124.839 113.581 124.735 113.646 124.646C113.711 124.557 113.788 124.487 113.875 124.438C113.961 124.389 114.054 124.363 114.148 124.361C114.242 124.36 114.335 124.383 114.422 124.429C114.995 124.72 115.54 125.098 116.046 125.553C115.872 124.754 115.77 123.932 115.743 123.102C115.737 122.976 115.751 122.851 115.784 122.732C115.817 122.614 115.868 122.506 115.934 122.415C116 122.323 116.08 122.25 116.169 122.201C116.257 122.151 116.353 122.125 116.449 122.125H116.548C116.644 122.125 116.74 122.151 116.828 122.201C116.917 122.25 116.997 122.323 117.063 122.415C117.129 122.506 117.18 122.614 117.213 122.732C117.246 122.851 117.26 122.976 117.254 123.102C117.227 123.932 117.125 124.754 116.95 125.553C117.46 125.103 118.004 124.726 118.575 124.429C118.663 124.383 118.757 124.361 118.852 124.364C118.946 124.367 119.04 124.394 119.126 124.445C119.212 124.495 119.29 124.568 119.354 124.659C119.419 124.749 119.468 124.856 119.5 124.972V125.055C119.542 125.173 119.562 125.302 119.56 125.432C119.557 125.561 119.532 125.689 119.487 125.804C119.441 125.919 119.376 126.02 119.297 126.097C119.217 126.175 119.125 126.228 119.027 126.253C118.432 126.459 117.82 126.576 117.205 126.603C117.707 127.085 118.163 127.645 118.561 128.27C118.619 128.365 118.663 128.474 118.688 128.591C118.714 128.707 118.722 128.83 118.712 128.95C118.701 129.071 118.672 129.188 118.627 129.294C118.582 129.4 118.521 129.494 118.448 129.569L118.37 129.652C118.295 129.736 118.206 129.797 118.11 129.829C118.015 129.862 117.915 129.866 117.817 129.841C117.72 129.817 117.629 129.764 117.55 129.686C117.47 129.609 117.406 129.509 117.36 129.394C117.018 128.715 116.734 127.989 116.513 127.229C116.281 127.987 115.993 128.712 115.651 129.394C115.605 129.509 115.541 129.609 115.461 129.686C115.382 129.764 115.291 129.817 115.194 129.841C115.096 129.866 114.996 129.862 114.901 129.829C114.805 129.797 114.716 129.736 114.641 129.652L114.563 129.569C114.485 129.499 114.419 129.408 114.37 129.301C114.321 129.195 114.29 129.077 114.28 128.953C114.269 128.83 114.279 128.706 114.308 128.588C114.337 128.47 114.386 128.362 114.45 128.27C114.853 127.642 115.308 127.074 115.806 126.575C115.181 126.572 114.559 126.464 113.956 126.253Z" fill="#263238"/>
<path d="M121.146 126.253C121.052 126.221 120.965 126.165 120.889 126.088C120.813 126.01 120.749 125.913 120.703 125.803C120.657 125.692 120.628 125.571 120.619 125.445C120.61 125.32 120.621 125.193 120.652 125.074L120.687 124.954C120.72 124.839 120.771 124.735 120.836 124.646C120.901 124.557 120.979 124.487 121.065 124.438C121.151 124.389 121.244 124.363 121.338 124.361C121.432 124.36 121.525 124.383 121.612 124.429C122.185 124.72 122.73 125.098 123.237 125.553C123.062 124.754 122.96 123.932 122.933 123.102C122.927 122.976 122.941 122.851 122.974 122.732C123.007 122.614 123.058 122.506 123.124 122.415C123.19 122.323 123.27 122.25 123.359 122.201C123.447 122.151 123.543 122.125 123.639 122.125H123.738C123.835 122.125 123.93 122.151 124.019 122.201C124.107 122.25 124.187 122.323 124.253 122.415C124.319 122.506 124.371 122.614 124.403 122.732C124.436 122.851 124.45 122.976 124.445 123.102C124.418 123.932 124.316 124.754 124.141 125.553C124.651 125.101 125.199 124.724 125.772 124.429C125.859 124.376 125.954 124.348 126.05 124.348C126.145 124.347 126.24 124.373 126.327 124.425C126.415 124.477 126.492 124.552 126.555 124.647C126.618 124.741 126.664 124.852 126.691 124.972V125.055C126.732 125.173 126.752 125.302 126.75 125.432C126.748 125.561 126.723 125.689 126.677 125.804C126.632 125.919 126.567 126.02 126.487 126.097C126.407 126.175 126.315 126.228 126.217 126.253C125.622 126.46 125.011 126.577 124.395 126.603C124.898 127.087 125.355 127.647 125.758 128.27C125.816 128.366 125.859 128.475 125.884 128.592C125.91 128.709 125.917 128.832 125.906 128.952C125.895 129.073 125.865 129.19 125.819 129.296C125.773 129.402 125.712 129.495 125.638 129.569L125.561 129.652C125.485 129.736 125.396 129.797 125.301 129.829C125.205 129.862 125.105 129.866 125.008 129.841C124.911 129.817 124.819 129.764 124.74 129.686C124.661 129.609 124.596 129.509 124.55 129.394C124.208 128.715 123.924 127.989 123.703 127.229C123.472 127.987 123.183 128.712 122.841 129.394C122.796 129.509 122.731 129.609 122.652 129.686C122.573 129.764 122.481 129.817 122.384 129.841C122.287 129.866 122.187 129.862 122.091 129.829C121.995 129.797 121.906 129.736 121.831 129.652L121.753 129.569C121.675 129.499 121.609 129.408 121.56 129.301C121.511 129.195 121.481 129.077 121.47 128.953C121.459 128.83 121.469 128.706 121.498 128.588C121.528 128.47 121.576 128.362 121.64 128.27C122.044 127.642 122.498 127.074 122.997 126.575C122.372 126.572 121.75 126.464 121.146 126.253Z" fill="#263238"/>
<path d="M128.287 126.253C128.193 126.222 128.104 126.167 128.027 126.09C127.95 126.013 127.886 125.916 127.839 125.805C127.792 125.695 127.763 125.573 127.754 125.447C127.745 125.321 127.755 125.194 127.785 125.074L127.821 124.954C127.854 124.839 127.905 124.735 127.97 124.646C128.035 124.557 128.113 124.487 128.199 124.438C128.285 124.389 128.378 124.363 128.472 124.361C128.566 124.36 128.659 124.383 128.746 124.429C129.319 124.72 129.864 125.098 130.371 125.553C130.196 124.754 130.094 123.932 130.067 123.102C130.061 122.976 130.075 122.851 130.108 122.732C130.141 122.614 130.192 122.506 130.258 122.415C130.324 122.323 130.404 122.25 130.493 122.201C130.581 122.151 130.677 122.125 130.773 122.125H130.872C130.968 122.125 131.064 122.151 131.153 122.201C131.241 122.25 131.321 122.323 131.387 122.415C131.453 122.506 131.504 122.614 131.537 122.732C131.57 122.851 131.584 122.976 131.578 123.102C131.552 123.932 131.448 124.755 131.268 125.553C131.778 125.101 132.325 124.724 132.899 124.429C132.986 124.376 133.081 124.348 133.176 124.348C133.272 124.347 133.367 124.373 133.454 124.425C133.541 124.477 133.619 124.552 133.682 124.647C133.744 124.741 133.791 124.852 133.817 124.972V125.055C133.859 125.174 133.879 125.303 133.876 125.433C133.873 125.564 133.848 125.691 133.802 125.807C133.755 125.922 133.689 126.023 133.609 126.1C133.528 126.177 133.435 126.229 133.337 126.253C132.742 126.46 132.13 126.577 131.515 126.603C132.018 127.087 132.475 127.647 132.878 128.27C132.936 128.366 132.979 128.475 133.004 128.592C133.029 128.709 133.037 128.832 133.025 128.952C133.014 129.073 132.985 129.19 132.939 129.296C132.893 129.402 132.832 129.495 132.758 129.569L132.687 129.652C132.611 129.736 132.522 129.797 132.426 129.829C132.33 129.862 132.229 129.866 132.131 129.842C132.034 129.817 131.942 129.764 131.862 129.686C131.782 129.609 131.716 129.509 131.67 129.394C131.328 128.717 131.046 127.99 130.83 127.229C130.596 127.987 130.305 128.712 129.961 129.394C129.915 129.509 129.851 129.609 129.772 129.686C129.692 129.764 129.601 129.817 129.504 129.841C129.407 129.866 129.306 129.862 129.211 129.829C129.115 129.797 129.026 129.736 128.951 129.652L128.873 129.569C128.795 129.499 128.729 129.408 128.68 129.301C128.631 129.195 128.6 129.077 128.59 128.953C128.579 128.83 128.589 128.706 128.618 128.588C128.647 128.47 128.696 128.362 128.76 128.27C129.163 127.642 129.618 127.074 130.116 126.575C129.498 126.571 128.883 126.463 128.287 126.253Z" fill="#263238"/>
<path d="M135.449 126.253C135.355 126.222 135.267 126.167 135.19 126.09C135.113 126.013 135.049 125.916 135.002 125.805C134.955 125.695 134.926 125.573 134.916 125.447C134.907 125.321 134.918 125.194 134.948 125.074V124.954C134.981 124.839 135.032 124.735 135.097 124.646C135.162 124.557 135.24 124.487 135.326 124.438C135.412 124.389 135.505 124.363 135.599 124.361C135.693 124.36 135.786 124.383 135.873 124.429C136.446 124.72 136.991 125.098 137.498 125.553C137.323 124.754 137.221 123.932 137.194 123.102C137.188 122.976 137.202 122.851 137.235 122.732C137.268 122.614 137.319 122.506 137.385 122.415C137.451 122.323 137.531 122.25 137.62 122.201C137.708 122.151 137.804 122.125 137.9 122.125H137.999C138.096 122.125 138.191 122.151 138.28 122.201C138.368 122.25 138.448 122.323 138.514 122.415C138.58 122.506 138.631 122.614 138.664 122.732C138.697 122.851 138.711 122.976 138.705 123.102C138.679 123.932 138.575 124.755 138.395 125.553C138.905 125.101 139.452 124.724 140.026 124.429C140.113 124.376 140.208 124.348 140.303 124.348C140.399 124.347 140.494 124.373 140.581 124.425C140.668 124.477 140.746 124.552 140.809 124.647C140.871 124.741 140.918 124.852 140.944 124.972V125.055C140.986 125.174 141.006 125.303 141.003 125.433C141 125.564 140.975 125.691 140.929 125.807C140.882 125.922 140.816 126.023 140.736 126.1C140.655 126.177 140.562 126.229 140.464 126.253C139.869 126.46 139.258 126.577 138.642 126.603C139.145 127.087 139.602 127.647 140.005 128.27C140.063 128.366 140.106 128.475 140.131 128.592C140.156 128.709 140.164 128.832 140.153 128.952C140.141 129.073 140.112 129.19 140.066 129.296C140.02 129.402 139.959 129.495 139.885 129.569L139.807 129.652C139.732 129.736 139.643 129.797 139.547 129.829C139.452 129.862 139.352 129.866 139.254 129.841C139.157 129.817 139.066 129.764 138.987 129.686C138.907 129.609 138.843 129.509 138.797 129.394C138.455 128.717 138.173 127.99 137.957 127.229C137.723 127.987 137.432 128.712 137.088 129.394C137.042 129.509 136.978 129.609 136.899 129.686C136.819 129.764 136.728 129.817 136.631 129.841C136.534 129.866 136.433 129.862 136.338 129.829C136.242 129.797 136.153 129.736 136.078 129.652L136 129.569C135.922 129.499 135.856 129.408 135.807 129.301C135.758 129.195 135.727 129.077 135.717 128.953C135.706 128.83 135.716 128.706 135.745 128.588C135.774 128.47 135.823 128.362 135.887 128.27C136.29 127.642 136.745 127.074 137.243 126.575C136.637 126.568 136.034 126.459 135.449 126.253Z" fill="#263238"/>
</svg>
