<svg width="799" height="603" viewBox="0 0 799 603" fill="none" xmlns="http://www.w3.org/2000/svg">
<path d="M738.256 407.944C717.687 484.607 219.073 477.729 63.9495 436.107C-91.1744 394.485 135.055 264.464 155.625 187.801C176.194 111.138 264.725 41.2159 419.848 82.8378C574.972 124.46 758.826 331.282 738.256 407.944Z" fill="#F7F7FF"/>
<path d="M492.562 369.11C496.247 370.848 505.233 370.625 505.243 370.625C505.254 370.625 503.308 364.252 503.133 363.862C501.167 359.405 494.898 352.018 489.854 352.72C489.014 352.868 488.213 353.206 487.501 353.712C486.79 354.218 486.185 354.88 485.726 355.656C485.266 356.432 484.963 357.303 484.836 358.214C484.708 359.125 484.759 360.055 484.986 360.943C485.83 364.798 489.432 367.628 492.562 369.11Z" fill="#263238"/>
<path d="M495.67 397.3C499.479 397.901 507.508 395.383 508.146 395.183C509.468 400.152 511.095 405.021 513.015 409.756C514.116 412.52 515.31 415.272 516.535 418.013C515.805 416.898 515.135 415.784 515.032 415.684C512.037 411.94 504.224 406.603 499.51 408.776C498.736 409.159 498.045 409.715 497.482 410.406C496.919 411.098 496.498 411.91 496.244 412.79C495.991 413.67 495.911 414.597 496.011 415.513C496.111 416.428 496.388 417.31 496.823 418.102C498.563 421.533 502.732 423.227 506.087 423.762C509.443 424.297 516.381 422.302 518.213 421.745C518.687 422.792 519.16 423.84 519.644 424.887C521.97 429.89 524.307 434.915 526.458 439.851C527.22 441.6 527.91 443.349 528.61 445.099C527.961 444.074 527.405 443.216 527.302 443.093C524.307 439.35 516.494 434.012 511.78 436.185C511.006 436.567 510.315 437.122 509.753 437.812C509.19 438.503 508.768 439.314 508.515 440.193C508.261 441.072 508.182 441.999 508.281 442.913C508.381 443.828 508.658 444.709 509.093 445.5C510.833 448.932 515.002 450.636 518.357 451.16C521.713 451.684 527.992 449.901 530.154 449.244C530.813 451.071 531.482 452.887 532.048 454.681C532.408 455.918 532.84 457.076 533.139 458.336C533.437 459.595 533.777 460.809 534.086 462.024C534.611 464.397 535.167 466.837 535.63 469.154C535.959 470.77 536.248 472.319 536.536 473.879C535.805 472.129 534.292 468.731 534.127 468.464C531.698 464.263 524.719 457.712 519.716 459.082C518.897 459.334 518.136 459.77 517.482 460.361C516.829 460.952 516.298 461.686 515.924 462.514C515.55 463.343 515.342 464.247 515.312 465.169C515.283 466.09 515.433 467.008 515.753 467.862C516.999 471.539 520.9 473.901 524.142 474.982C527.745 476.163 535.702 475.082 536.7 474.982C537.174 477.556 537.617 480.074 537.997 482.447C538.203 483.706 538.389 484.887 538.564 486.068H541.734C541.497 484.709 541.25 483.305 540.983 481.845C540.509 479.227 539.953 476.441 539.356 473.578C541.756 472.541 544.097 471.35 546.366 470.012C548.991 473.088 555.702 476.698 556.577 477.143C555.661 479.572 554.745 481.934 553.86 484.14C553.592 484.809 553.325 485.433 553.067 486.068H556.402L556.649 485.422C557.596 482.959 558.543 480.296 559.511 477.556C560.468 477.778 568.353 479.517 572.028 478.614C575.363 477.801 579.398 475.762 580.891 472.196C581.268 471.37 581.48 470.468 581.514 469.548C581.548 468.627 581.402 467.709 581.087 466.854C580.771 465.998 580.293 465.224 579.683 464.582C579.072 463.94 578.344 463.444 577.545 463.127C572.687 461.355 565.275 467.327 562.558 471.316C562.404 471.55 560.921 474.302 560.026 476.062C560.407 474.948 560.798 473.834 561.179 472.72C561.951 470.491 562.661 468.129 563.443 465.656C563.773 464.441 564.112 463.216 564.473 461.979C564.833 460.742 565.08 459.427 565.389 458.146C566.047 455.138 566.583 452.063 567.056 448.954C568.909 449.678 575.518 452.174 578.935 451.907C582.352 451.639 586.624 450.291 588.601 447.015C589.087 446.259 589.421 445.4 589.581 444.495C589.741 443.59 589.723 442.659 589.529 441.761C589.335 440.864 588.969 440.021 588.454 439.287C587.939 438.553 587.288 437.944 586.542 437.5C581.982 434.96 573.819 439.639 570.577 443.138C570.381 443.35 568.312 446.146 567.2 447.695C567.478 445.823 567.756 443.962 567.972 442.057C568.6 436.553 569.084 430.971 569.588 425.4C569.743 423.695 569.908 421.99 570.072 420.297C570.731 420.564 578.534 423.706 582.363 423.416C585.77 423.149 590.052 421.801 592.018 418.514C592.506 417.758 592.841 416.899 593.002 415.994C593.163 415.089 593.146 414.157 592.951 413.259C592.757 412.361 592.39 411.518 591.875 410.784C591.359 410.05 590.707 409.441 589.959 408.999C585.41 406.458 577.247 411.149 574.004 414.637C573.757 414.904 570.793 418.926 570.083 419.985C570.453 416.241 570.844 412.508 571.38 408.843C572.067 403.894 573.054 399 574.334 394.191C574.632 394.325 582.754 397.634 586.686 397.344C590.093 397.077 594.365 395.729 596.341 392.442C596.829 391.686 597.165 390.827 597.325 389.922C597.486 389.016 597.469 388.084 597.275 387.186C597.08 386.289 596.714 385.445 596.198 384.711C595.683 383.977 595.03 383.369 594.283 382.926C589.733 380.386 581.57 385.077 578.328 388.564C578.07 388.843 574.879 393.166 574.354 394.001C574.426 393.723 574.478 393.422 574.56 393.144C575.965 388.36 577.76 383.722 579.923 379.283C581.086 376.82 582.322 374.536 583.577 372.33C585.039 373.121 591.72 376.631 595.281 376.787C598.843 376.943 603.084 376.096 605.379 373.077C605.942 372.386 606.365 371.576 606.62 370.697C606.875 369.818 606.957 368.891 606.86 367.976C606.763 367.061 606.489 366.179 606.057 365.386C605.624 364.592 605.043 363.906 604.35 363.372C600.078 360.308 591.493 363.996 587.88 367.082C587.685 367.249 585.883 369.188 584.596 370.626C585.173 369.645 585.749 368.62 586.326 367.684C588.467 364.197 590.628 361.144 592.564 358.447C593.675 356.932 594.705 355.584 595.652 354.325C597.453 354.325 604.7 354.057 607.87 352.442C611.041 350.826 614.499 347.985 615.251 344.108C615.453 343.213 615.48 342.282 615.329 341.376C615.178 340.47 614.853 339.608 614.374 338.846C613.896 338.084 613.275 337.44 612.552 336.955C611.828 336.47 611.019 336.154 610.176 336.03C605.091 335.439 599.038 342.993 597.175 347.517C597.011 347.907 595.116 354.336 595.24 354.336H595.353C594.386 355.517 593.367 356.798 592.265 358.224C590.268 360.876 588.045 363.885 585.821 367.339C583.392 371.037 581.162 374.884 579.141 378.859C576.863 383.302 574.954 387.956 573.438 392.765C573.438 392.82 573.438 392.887 573.438 392.943C573.438 391.316 573.438 386.77 573.356 386.425C572.769 381.511 568.971 372.397 563.927 371.394C563.086 371.253 562.227 371.304 561.406 371.545C560.585 371.786 559.82 372.212 559.161 372.794C558.502 373.376 557.963 374.102 557.58 374.924C557.197 375.747 556.978 376.647 556.938 377.567C556.649 381.467 559.254 385.366 561.806 387.84C564.678 390.614 572.656 393.3 573.294 393.511C571.864 398.447 570.736 403.479 569.918 408.575C569.434 411.55 569.022 414.547 568.652 417.567C568.652 416.163 568.652 414.904 568.59 414.737C567.993 409.823 564.195 400.709 559.161 399.695C558.32 399.552 557.46 399.602 556.637 399.842C555.815 400.082 555.049 400.508 554.388 401.09C553.728 401.672 553.188 402.399 552.804 403.222C552.421 404.045 552.202 404.947 552.161 405.868C551.873 409.767 554.488 413.667 557.03 416.141C559.573 418.614 566.377 421.088 568.168 421.712C568.044 422.826 567.9 424.029 567.766 425.188C567.149 430.759 566.562 436.33 565.831 441.745C565.574 443.65 565.255 445.533 564.936 447.405C564.936 446.157 564.936 445.11 564.874 444.943C564.287 440.04 560.489 430.926 555.455 429.912C554.614 429.769 553.754 429.819 552.932 430.059C552.109 430.299 551.343 430.725 550.682 431.307C550.022 431.889 549.482 432.616 549.099 433.439C548.715 434.262 548.496 435.164 548.456 436.085C548.168 439.985 550.772 443.884 553.325 446.358C555.877 448.831 562.012 451.06 564.143 451.806C563.773 453.712 563.402 455.628 562.959 457.466C562.63 458.714 562.393 459.929 562.002 461.166C561.611 462.402 561.271 463.606 560.911 464.809C560.139 467.104 559.357 469.466 558.554 471.684C558.008 473.221 557.463 474.681 556.917 476.141C557.195 474.246 557.658 470.503 557.668 470.191C557.614 465.836 556.526 461.569 554.508 457.801C554.527 457.312 554.5 456.823 554.426 456.341C554.322 455.426 554.04 454.545 553.6 453.756C553.16 452.967 552.571 452.287 551.871 451.762C551.172 451.236 550.378 450.876 549.541 450.705C548.704 450.534 547.843 450.556 547.015 450.77C542.063 452.196 538.924 461.6 538.687 466.547C538.687 466.837 538.852 470.024 538.996 472.029C538.749 470.859 538.512 469.723 538.245 468.53C537.73 466.157 537.143 463.806 536.525 461.277C536.186 460.074 535.846 458.848 535.496 457.611C535.146 456.375 534.693 455.127 534.292 453.868C533.314 450.971 532.233 448.085 531.008 445.199C532.923 444.709 539.706 442.837 542.424 440.575C545.141 438.313 548.013 434.636 547.982 430.726C548.002 429.807 547.844 428.894 547.517 428.047C547.19 427.199 546.702 426.435 546.085 425.804C545.467 425.174 544.734 424.691 543.933 424.387C543.132 424.083 542.281 423.965 541.436 424.04C536.34 424.642 531.924 433.422 530.998 438.269C530.946 438.57 530.638 442.135 530.504 444.096C529.783 442.369 529.063 440.642 528.27 438.926C525.995 433.957 523.556 429.021 521.126 424.074C520.385 422.558 519.665 421.032 518.934 419.517C519.623 419.35 527.724 417.288 530.771 414.781C533.489 412.553 536.361 408.843 536.33 404.932C536.35 404.013 536.192 403.101 535.865 402.253C535.538 401.405 535.05 400.641 534.432 400.011C533.815 399.38 533.082 398.897 532.281 398.593C531.48 398.289 530.629 398.171 529.783 398.247C524.698 398.848 520.272 407.628 519.346 412.475C519.284 412.843 518.851 417.968 518.8 419.272C517.194 415.929 515.63 412.586 514.209 409.244C512.258 404.707 510.587 400.036 509.206 395.261C509.525 395.183 517.987 393.099 521.116 390.514C523.823 388.286 526.705 384.575 526.675 380.664C526.693 379.747 526.534 378.835 526.206 377.988C525.879 377.141 525.391 376.377 524.774 375.747C524.157 375.117 523.424 374.634 522.624 374.33C521.824 374.025 520.973 373.906 520.128 373.979C515.033 374.57 510.617 383.361 509.69 388.208C509.618 388.586 509.165 394.102 509.145 395.105C509.062 394.826 508.959 394.547 508.877 394.269C507.613 389.444 506.745 384.507 506.283 379.517C506.005 376.765 505.871 374.113 505.799 371.528C507.415 371.316 514.775 370.258 517.822 368.252C520.869 366.247 523.998 363.027 524.348 359.127C524.466 358.214 524.404 357.285 524.167 356.4C523.931 355.515 523.524 354.694 522.974 353.99C522.425 353.287 521.744 352.717 520.977 352.318C520.209 351.918 519.373 351.699 518.522 351.673C513.375 351.673 508.115 359.862 506.705 364.575C506.633 364.832 506.118 367.528 505.768 369.5C505.768 368.33 505.717 367.127 505.717 366.013C505.717 361.823 505.974 357.979 506.211 354.581C506.365 352.653 506.54 350.904 506.715 349.277C508.198 348.163 514.127 343.706 515.98 340.419C517.832 337.133 519.212 332.698 517.884 329.055C517.598 328.186 517.147 327.393 516.56 326.726C515.973 326.059 515.262 325.534 514.475 325.184C513.687 324.834 512.84 324.667 511.989 324.695C511.138 324.722 510.302 324.944 509.536 325.344C504.986 327.896 503.792 337.812 504.543 342.692C504.605 343.116 506.324 349.589 506.407 349.534L506.489 349.467C506.293 351.027 506.098 352.709 505.912 354.548C505.604 357.946 505.274 361.79 505.192 366.002C505.045 370.535 505.145 375.074 505.49 379.595C505.85 384.663 506.628 389.686 507.817 394.603C507.831 394.664 507.848 394.723 507.868 394.781C507.055 393.411 504.687 389.656 504.471 389.389C501.486 385.645 493.663 380.319 488.949 382.481C488.174 382.864 487.484 383.42 486.921 384.111C486.358 384.803 485.936 385.615 485.683 386.495C485.43 387.374 485.35 388.302 485.45 389.217C485.55 390.133 485.826 391.015 486.262 391.807C488.125 395.071 492.294 396.765 495.67 397.3Z" fill="#263238"/>
<path d="M583.516 371.227C583.598 371.283 585.152 364.754 585.204 364.331C585.842 359.428 584.391 349.545 579.779 347.138C579.003 346.764 578.164 346.569 577.314 346.568C576.465 346.567 575.625 346.76 574.848 347.132C574.072 347.505 573.377 348.051 572.807 348.733C572.238 349.416 571.808 350.22 571.544 351.094C570.309 354.771 571.874 359.283 573.726 362.392C575.898 366.058 583.516 371.227 583.516 371.227Z" fill="#263238"/>
<path d="M363.933 296.197H227.523V104.933H363.933V296.197ZM228.552 295.082H362.904V106.047H228.552V295.082Z" fill="#263238"/>
<path d="M360.084 290.804H231.332V110.303H360.084V290.804ZM232.443 289.69H359.054V111.418H232.361L232.443 289.69Z" fill="#263238"/>
<path d="M328.091 245.835H263.375V155.306H328.091V245.835ZM264.425 244.721H327.062V156.42H264.405L264.425 244.721Z" fill="#263238"/>
<path d="M511.09 215.239L488.866 211.84L491.954 187.952L514.189 191.295L511.09 215.239ZM490.03 210.893L510.215 213.98L513.046 192.297L492.85 189.211L490.03 210.893ZM514.631 179.428L494.301 176.32L497.245 153.746L497.441 153.612C502.826 150.039 507.947 146.02 512.758 141.59C517.258 137.485 521.174 132.683 524.379 127.339C527.409 122.246 529.383 116.502 530.164 110.504C530.772 105.858 530.277 102.058 528.692 99.1835C527.107 96.3088 524.492 94.6487 520.879 94.0916C519.502 93.7973 518.084 93.8014 516.707 94.1035C515.331 94.4057 514.024 95 512.861 95.852C511.774 96.7626 510.874 97.9069 510.217 99.2129C509.56 100.519 509.16 101.958 509.042 103.44C508.84 104.893 508.805 106.367 508.939 107.83C509.073 109.267 509.248 110.816 509.464 112.431L509.536 113.022L488.3 114.727L488.218 114.247C487.778 111.905 487.513 109.528 487.425 107.139C487.345 104.815 487.456 102.489 487.755 100.186C489.021 90.4816 492.84 83.0498 499.078 78.0916C505.316 73.1334 513.694 71.4064 523.916 72.9886C534.354 74.5819 542.156 78.9496 547.128 85.9579C552.1 92.9662 553.881 102.259 552.409 113.557C551.558 120.565 549.431 127.322 546.15 133.434C542.834 139.429 538.642 144.803 533.736 149.345C528.469 154.231 522.809 158.598 516.824 162.392L514.631 179.428ZM495.465 175.373L513.756 178.169L515.908 161.657L516.124 161.523C522.132 157.73 527.809 153.356 533.088 148.454C537.907 143.977 542.026 138.687 545.285 132.788C548.516 126.815 550.615 120.205 551.462 113.345C552.892 102.359 551.184 93.3562 546.387 86.6041C541.59 79.8521 534.035 75.6181 523.844 74.0582C513.9 72.5429 505.789 74.1919 499.757 78.9607C493.725 83.7295 489.999 90.8938 488.774 100.287C488.483 102.523 488.377 104.782 488.455 107.039C488.534 109.204 488.761 111.361 489.134 113.49L508.362 111.941C508.187 110.526 508.033 109.167 507.91 107.885C507.769 106.334 507.807 104.769 508.023 103.228C508.158 101.599 508.604 100.019 509.332 98.5863C510.06 97.1536 511.055 95.9001 512.253 94.9049C513.522 93.9634 514.95 93.3043 516.456 92.9657C517.961 92.6271 519.514 92.6159 521.024 92.9328C524.966 93.5345 527.838 95.4286 529.567 98.5038C531.297 101.579 531.821 105.646 531.183 110.548C530.389 116.722 528.363 122.634 525.244 127.874C521.984 133.305 518.002 138.186 513.427 142.359C508.635 146.765 503.542 150.773 498.192 154.348L495.465 175.373Z" fill="#263238"/>
<path d="M381.525 269.835C381.525 269.835 315.451 270.782 313.392 275.874C311.333 280.965 301.935 342.637 301.348 363.896C300.762 385.155 300.473 399.182 302.522 401.723C304.57 404.263 336.594 424.296 336.594 424.296C336.594 424.296 321.616 481.199 326.3 483.115C330.984 485.032 359.785 492.965 378.283 493.288C396.78 493.611 415 493.6 416.472 493.6C417.944 493.6 465.222 495.505 481.671 491.371C498.12 487.238 503.102 486.915 503.102 479.929C503.102 472.943 498.985 464.33 498.697 462.77C498.409 461.21 509.865 340.687 503.401 311.127C496.937 281.567 488.424 270.113 481.959 268.208C475.495 266.303 429.39 267.573 429.39 267.573L381.525 269.835Z" fill="#7E57C2"/>
<path d="M441.825 494.658C434.619 494.658 426.58 494.536 417.913 494.268H416.482C413.188 494.268 395.895 494.268 378.293 493.956C359.486 493.633 330.706 485.6 326.135 483.739C325.106 483.338 322.769 482.38 329.223 452.976C332.044 440.029 335.399 427.138 336.017 424.675C332.363 422.391 304.159 404.675 302.172 402.202C300 399.517 300.247 386.603 300.865 363.996C301.462 342.458 311.014 280.531 312.949 275.729C315.008 270.57 370.439 269.511 381.546 269.355L429.411 267.127C431.305 267.071 475.732 265.879 482.134 267.784C486.108 268.899 496.164 275.517 503.946 311.105C509.268 335.461 502.577 420.007 500.055 451.828C499.572 457.945 499.222 462.369 499.253 462.803C499.484 463.579 499.752 464.341 500.055 465.087C501.311 468.43 503.658 474.714 503.658 480.04C503.658 486.725 499.469 487.706 487.014 490.747L481.867 492.029C474.764 493.789 460.878 494.658 441.825 494.658ZM458.655 267.784C444.666 267.784 429.678 268.185 429.411 268.197L381.546 270.425C356.12 270.793 315.276 272.653 313.876 276.13C311.951 280.887 302.47 342.525 301.873 363.985C301.359 382.737 300.906 398.937 302.903 401.433C304.539 403.461 327.957 418.324 336.871 423.884C336.971 423.946 337.048 424.043 337.091 424.158C337.134 424.273 337.14 424.4 337.108 424.519C329.789 452.252 323.83 481.533 326.496 482.647C331.035 484.486 359.62 492.463 378.303 492.786C395.915 493.087 413.188 493.098 416.482 493.098H417.944C449.349 494.057 471.944 493.266 481.558 490.87C483.442 490.391 485.171 489.979 486.756 489.589C498.923 486.614 502.598 485.711 502.598 479.962C502.598 474.859 500.302 468.72 499.067 465.422C498.731 464.602 498.443 463.761 498.203 462.904C498.151 462.58 498.295 460.619 499.006 451.65C501.517 419.873 508.198 335.472 502.907 311.261C495.259 276.252 485.624 269.879 481.836 268.754C479.129 268.018 469.175 267.784 458.655 267.784Z" fill="#263238"/>
<path d="M409.853 299.74C409.752 299.742 409.653 299.711 409.569 299.651C409.484 299.592 409.418 299.506 409.379 299.406C409.352 299.338 409.337 299.266 409.336 299.193C409.335 299.119 409.347 299.046 409.372 298.978C409.397 298.909 409.434 298.847 409.481 298.794C409.528 298.742 409.585 298.699 409.647 298.67C411.988 297.588 414.263 296.349 416.461 294.96C416.52 294.924 416.585 294.9 416.652 294.89C416.72 294.881 416.788 294.886 416.853 294.905C416.919 294.924 416.98 294.957 417.034 295.002C417.088 295.047 417.133 295.103 417.166 295.166C417.2 295.23 417.222 295.3 417.231 295.373C417.24 295.446 417.235 295.52 417.217 295.591C417.2 295.661 417.169 295.728 417.128 295.786C417.086 295.844 417.035 295.893 416.976 295.929C414.741 297.339 412.428 298.597 410.048 299.695C409.987 299.726 409.92 299.741 409.853 299.74Z" fill="#263238"/>
<path d="M419.827 293.924C419.743 293.923 419.659 293.9 419.584 293.858C419.509 293.815 419.444 293.754 419.395 293.679C419.322 293.555 419.297 293.404 419.325 293.26C419.354 293.116 419.435 292.99 419.549 292.91C427.732 287.011 434.915 279.631 440.785 271.094C440.824 271.034 440.874 270.982 440.931 270.943C440.989 270.904 441.053 270.877 441.12 270.864C441.187 270.852 441.255 270.854 441.322 270.871C441.388 270.887 441.45 270.917 441.506 270.96C441.561 271.001 441.608 271.054 441.644 271.115C441.681 271.176 441.705 271.245 441.717 271.316C441.728 271.388 441.726 271.461 441.711 271.532C441.696 271.603 441.668 271.67 441.629 271.729C435.681 280.377 428.404 287.854 420.116 293.835C420.03 293.896 419.93 293.927 419.827 293.924Z" fill="#263238"/>
<path d="M425.88 297.043C425.788 297.043 425.697 297.015 425.618 296.964C425.538 296.914 425.472 296.841 425.427 296.754C425.395 296.689 425.374 296.619 425.367 296.546C425.359 296.473 425.366 296.399 425.385 296.329C425.404 296.258 425.436 296.193 425.478 296.136C425.521 296.078 425.573 296.031 425.633 295.996C430.78 293.01 436.802 283.907 436.863 283.818C436.9 283.751 436.948 283.694 437.006 283.649C437.064 283.604 437.13 283.573 437.2 283.557C437.27 283.541 437.342 283.541 437.412 283.557C437.482 283.572 437.548 283.604 437.606 283.649C437.664 283.694 437.713 283.751 437.749 283.818C437.785 283.884 437.809 283.958 437.817 284.035C437.826 284.111 437.819 284.189 437.799 284.263C437.778 284.337 437.744 284.405 437.697 284.464C437.45 284.843 431.521 293.868 426.117 296.977C426.045 297.021 425.963 297.044 425.88 297.043Z" fill="#263238"/>
<path d="M395.298 386.558C395.19 386.557 395.085 386.518 394.998 386.448C394.911 386.378 394.847 386.28 394.814 386.168L393.085 380.352C393.062 380.283 393.053 380.209 393.058 380.136C393.062 380.062 393.081 379.991 393.111 379.925C393.142 379.86 393.185 379.802 393.237 379.754C393.289 379.707 393.349 379.672 393.414 379.65C393.544 379.604 393.685 379.616 393.807 379.683C393.928 379.75 394.02 379.866 394.063 380.007L395.792 385.823C395.834 385.963 395.823 386.116 395.761 386.248C395.7 386.379 395.592 386.479 395.463 386.525C395.41 386.547 395.354 386.558 395.298 386.558Z" fill="#263238"/>
<path d="M404.727 418.246C404.618 418.247 404.512 418.209 404.425 418.138C404.338 418.068 404.274 417.969 404.243 417.856L396.585 392.129C396.542 391.982 396.556 391.822 396.623 391.685C396.689 391.548 396.803 391.445 396.94 391.4C397.076 391.354 397.224 391.369 397.35 391.441C397.477 391.513 397.572 391.636 397.614 391.784L405.272 417.522C405.312 417.663 405.3 417.814 405.238 417.945C405.177 418.076 405.071 418.176 404.943 418.224L404.727 418.246Z" fill="#263238"/>
<path d="M407.084 418.882C406.985 418.887 406.887 418.855 406.806 418.793C406.749 418.754 406.699 418.703 406.659 418.644C406.62 418.584 406.592 418.517 406.576 418.445C406.561 418.374 406.559 418.3 406.57 418.227C406.581 418.155 406.605 418.086 406.641 418.024L414.279 404.999C414.314 404.935 414.36 404.88 414.415 404.837C414.47 404.793 414.533 404.762 414.599 404.745C414.666 404.729 414.734 404.727 414.801 404.74C414.869 404.753 414.932 404.78 414.989 404.82C415.104 404.901 415.185 405.025 415.215 405.169C415.246 405.312 415.224 405.463 415.154 405.589L407.516 418.625C407.469 418.703 407.405 418.767 407.33 418.812C407.254 418.857 407.17 418.881 407.084 418.882Z" fill="#263238"/>
<path d="M424.408 411.249C424.308 411.253 424.208 411.224 424.123 411.167C424.038 411.109 423.97 411.025 423.929 410.926C423.889 410.827 423.876 410.716 423.893 410.609C423.911 410.502 423.957 410.403 424.027 410.324L442.556 387.751C442.647 387.64 442.776 387.573 442.913 387.565C443.05 387.556 443.184 387.607 443.287 387.706C443.389 387.805 443.451 387.944 443.458 388.092C443.466 388.241 443.419 388.386 443.328 388.497L424.799 411.071C424.75 411.13 424.689 411.176 424.622 411.207C424.554 411.238 424.481 411.252 424.408 411.249Z" fill="#263238"/>
<path d="M416.482 494.224H416.338L376.471 481.644C376.406 481.624 376.346 481.59 376.293 481.544C376.24 481.498 376.196 481.442 376.164 481.377C376.131 481.313 376.111 481.243 376.103 481.17C376.096 481.097 376.102 481.024 376.121 480.954C376.139 480.882 376.169 480.816 376.211 480.758C376.253 480.7 376.306 480.652 376.365 480.617C376.425 480.581 376.491 480.559 376.558 480.552C376.626 480.545 376.694 480.553 376.759 480.575L416.616 493.132C416.752 493.152 416.876 493.231 416.959 493.35C417.042 493.469 417.078 493.619 417.058 493.767C417.039 493.915 416.967 494.048 416.857 494.138C416.747 494.228 416.608 494.267 416.472 494.246L416.482 494.224Z" fill="#263238"/>
<path d="M371.921 480.174H371.777L364.942 478.012C364.806 477.971 364.69 477.872 364.62 477.739C364.551 477.605 364.533 477.447 364.572 477.299C364.61 477.151 364.701 477.026 364.824 476.951C364.948 476.876 365.094 476.857 365.23 476.898L372.065 479.059C372.13 479.08 372.191 479.114 372.243 479.16C372.296 479.206 372.34 479.262 372.372 479.326C372.405 479.391 372.425 479.461 372.433 479.534C372.44 479.606 372.434 479.68 372.415 479.75C372.388 479.87 372.325 479.977 372.235 480.053C372.146 480.13 372.035 480.172 371.921 480.174Z" fill="#263238"/>
<path d="M381.113 128.476C381.113 128.476 360.372 123.317 356.409 129.088C352.446 134.86 360.341 140.32 359.219 141.534C358.097 142.749 333.979 156.097 335.935 169.155C337.891 182.214 354.165 195.562 354.731 199.239C355.297 202.915 335.935 204.097 333.413 209.556C330.891 215.016 327.237 240.821 348.277 249.322C369.317 257.823 395.627 243.55 402.956 243.55C410.285 243.55 417.542 259.038 425.952 258.124C431.075 257.49 435.787 254.779 439.138 250.536C439.138 250.536 447.826 263.595 460.446 258.124C473.066 252.653 487.652 233.534 481.486 227.773C475.32 222.013 468.3 220.186 472.788 215.027C477.276 209.868 486.53 196.208 485.14 184.364C483.75 172.52 470.832 171.618 465.788 167.974C460.744 164.331 471.398 158.258 471.12 148.242C470.842 138.225 464.1 121.501 429.894 110.359C395.689 99.2167 378.859 104.587 377.171 114.002C376.643 116.579 376.728 119.258 377.418 121.789C378.107 124.321 379.379 126.621 381.113 128.476Z" fill="#263238"/>
<path d="M454.352 259.974C446.333 259.974 440.672 253.367 439.159 251.384C435.755 255.473 431.087 258.072 426.034 258.693C421.351 259.205 417.11 254.982 413.023 250.893C409.524 247.395 406.209 244.097 402.987 244.097C401.021 244.097 397.49 245.211 393.023 246.637C381.237 250.37 363.419 256.007 348.133 249.835C340.824 246.882 335.78 241.634 333.063 234.236C329.46 224.297 331.231 213.066 332.981 209.3C334.422 206.191 340.557 204.453 345.971 202.927C349.749 201.813 354.443 200.531 354.206 199.317C353.969 198.102 351.88 195.696 349.378 192.776C344.345 186.882 336.727 177.98 335.42 169.267C333.701 157.846 350.603 146.66 356.975 142.448C357.86 141.857 358.704 141.334 358.838 141.155C358.504 140.545 358.125 139.963 357.706 139.417C355.997 137.011 353.135 132.966 355.987 128.777C359.445 123.696 374.515 126.548 379.58 127.585C378.181 125.673 377.195 123.448 376.694 121.07C376.194 118.693 376.191 116.225 376.687 113.846C376.995 112.413 377.582 111.067 378.41 109.898C379.237 108.73 380.285 107.767 381.484 107.072C390.058 101.501 407.774 102.459 430.059 109.78C465.634 121.456 471.388 138.883 471.656 148.242C471.789 153.278 469.298 157.3 467.291 160.498C465.922 162.726 464.749 164.598 464.996 165.969C465.074 166.289 465.213 166.589 465.402 166.849C465.592 167.11 465.828 167.326 466.097 167.484C467.815 168.558 469.633 169.432 471.522 170.091C477.358 172.431 484.615 175.35 485.665 184.275C487.044 195.919 478.46 209.311 473.189 215.384C472.801 215.732 472.486 216.168 472.268 216.66C472.049 217.152 471.932 217.69 471.923 218.236C472.088 219.863 474.116 221.345 476.689 223.205C478.479 224.467 480.198 225.844 481.836 227.328C482.534 228.045 483.042 228.951 483.31 229.951C483.578 230.952 483.595 232.012 483.359 233.021C482.062 241.4 470.606 254.314 460.662 258.648C458.656 259.52 456.514 259.97 454.352 259.974ZM439.169 249.946C439.248 249.947 439.326 249.969 439.396 250.01C439.466 250.051 439.526 250.109 439.57 250.18C439.663 250.303 448.186 262.815 460.281 257.579C469.957 253.389 481.095 240.865 482.34 232.832C482.659 230.76 482.268 229.189 481.167 228.164C479.558 226.719 477.87 225.379 476.113 224.152C473.323 222.125 471.12 220.52 470.894 218.392C470.883 217.681 471.017 216.976 471.286 216.328C471.554 215.679 471.951 215.102 472.448 214.637C477.245 209.066 485.984 195.696 484.646 184.431C483.668 176.186 476.73 173.401 471.161 171.161C469.198 170.473 467.307 169.562 465.521 168.442C465.139 168.202 464.807 167.881 464.543 167.498C464.28 167.115 464.091 166.678 463.987 166.214C463.657 164.398 464.882 162.414 466.437 159.908C468.362 156.81 470.75 152.955 470.626 148.275C470.369 139.217 464.728 122.325 429.761 110.849C407.753 103.618 390.347 102.593 382.019 108.03C380.944 108.645 380.003 109.5 379.257 110.54C378.512 111.579 377.979 112.779 377.696 114.058C377.179 116.551 377.252 119.146 377.909 121.6C378.565 124.054 379.785 126.289 381.453 128.097C381.538 128.181 381.597 128.292 381.619 128.415C381.641 128.537 381.626 128.664 381.576 128.777C381.524 128.888 381.439 128.977 381.335 129.029C381.23 129.082 381.112 129.095 381 129.066C375.318 127.651 359.909 124.977 356.851 129.456C354.463 132.977 356.851 136.32 358.56 138.771C359.589 140.186 360.3 141.222 359.589 141.969C358.937 142.51 358.249 142.998 357.531 143.428C351.921 147.139 334.885 158.426 336.46 169.111C337.716 177.49 345.199 186.247 350.161 192.041C353.094 195.473 355.029 197.735 355.246 199.161C355.585 201.389 351.653 202.503 346.218 204.03C341.267 205.423 335.111 207.161 333.866 209.824C332.239 213.345 330.531 224.364 333.979 233.846C335.236 237.333 337.182 240.479 339.683 243.065C342.183 245.65 345.176 247.611 348.452 248.81C363.419 254.86 381.031 249.278 392.714 245.59C397.264 244.152 400.846 243.005 403.008 243.005C406.631 243.005 410.09 246.448 413.744 250.091C417.666 254.002 421.721 258.035 425.952 257.579C430.93 256.946 435.507 254.314 438.778 250.202C438.821 250.131 438.879 250.07 438.946 250.026C439.014 249.981 439.09 249.954 439.169 249.946Z" fill="#263238"/>
<path d="M384.85 225.868C384.85 225.868 377.84 273.222 377.562 274.737C377.284 276.253 389.914 289.913 407.002 287.484C417.011 286.182 426.21 280.881 432.797 272.62L427.476 225.568C427.476 225.568 412.89 233.155 403.914 232.855C394.938 232.554 384.85 225.868 384.85 225.868Z" fill="white"/>
<path d="M402.967 288.331C393.783 288.168 385.011 284.177 378.478 277.189C376.903 275.372 377.017 274.793 377.058 274.57C377.325 273.088 384.263 226.203 384.335 225.724C384.35 225.633 384.385 225.549 384.437 225.476C384.488 225.404 384.556 225.346 384.632 225.308C384.709 225.269 384.793 225.252 384.878 225.256C384.962 225.261 385.045 225.287 385.118 225.334C385.221 225.4 395.205 231.941 403.934 232.242C412.663 232.542 427.105 225.088 427.249 225.01C427.322 224.969 427.404 224.948 427.486 224.948C427.568 224.948 427.65 224.969 427.723 225.01C427.793 225.055 427.853 225.116 427.897 225.189C427.942 225.263 427.97 225.347 427.98 225.434L433.312 272.475C433.321 272.548 433.316 272.622 433.299 272.693C433.281 272.763 433.251 272.83 433.209 272.888C426.515 281.234 417.207 286.607 407.074 287.974C405.713 288.191 404.341 288.31 402.967 288.331ZM385.241 226.76C384.284 233.211 378.324 273.434 378.036 274.849C378.252 276.23 390.213 289.333 406.858 286.938C416.644 285.601 425.646 280.452 432.18 272.453L427.054 226.381C424.089 227.863 411.932 233.668 403.903 233.4C396.111 233.144 387.64 228.253 385.241 226.76Z" fill="#263238"/>
<path d="M381.968 251.272L411.5 245.088L384.85 225.868L381.968 251.272Z" fill="#263238"/>
<path d="M381.968 251.829C381.839 251.825 381.716 251.774 381.618 251.684C381.56 251.622 381.516 251.547 381.489 251.464C381.463 251.381 381.454 251.292 381.463 251.205L384.335 225.801C384.346 225.707 384.379 225.617 384.431 225.541C384.484 225.465 384.553 225.405 384.634 225.367C384.712 225.323 384.798 225.3 384.886 225.3C384.974 225.3 385.06 225.323 385.138 225.367L411.778 244.598C411.864 244.657 411.932 244.742 411.973 244.844C412.013 244.945 412.024 245.058 412.004 245.166C411.983 245.275 411.933 245.374 411.86 245.451C411.786 245.529 411.693 245.581 411.593 245.601L382.071 251.784L381.968 251.829ZM385.262 226.837L382.565 250.581L410.162 244.798L385.262 226.837Z" fill="#263238"/>
<path d="M369.265 184.119C369.265 184.119 364.324 177.345 362.06 185.902C359.795 194.459 369.636 204.843 369.636 204.843L369.265 184.119Z" fill="white"/>
<path d="M369.595 205.356C369.473 205.35 369.357 205.299 369.265 205.211C368.854 204.777 359.188 194.537 361.555 185.757C362.307 182.972 363.439 181.401 364.921 181.089C367.33 180.587 369.605 183.651 369.698 183.785C369.77 183.879 369.81 183.997 369.811 184.119L370.14 204.799C370.14 204.909 370.111 205.017 370.056 205.109C370.002 205.202 369.924 205.276 369.832 205.322C369.755 205.346 369.675 205.357 369.595 205.356ZM365.477 182.136C365.361 182.124 365.244 182.124 365.127 182.136C364.098 182.359 363.182 183.707 362.554 186.024C360.773 192.643 366.754 200.576 369.101 203.35L368.792 184.286C368.164 183.573 366.743 182.136 365.436 182.136H365.477Z" fill="#263238"/>
<path d="M440.054 184.119C440.054 184.119 444.995 177.345 447.26 185.902C449.524 194.459 439.684 204.843 439.684 204.843L440.054 184.119Z" fill="white"/>
<path d="M439.725 205.356C439.657 205.367 439.587 205.367 439.519 205.356C439.424 205.313 439.344 205.24 439.289 205.146C439.234 205.052 439.206 204.943 439.21 204.832L439.54 184.152C439.542 184.032 439.578 183.916 439.642 183.818C439.745 183.684 442.031 180.609 444.419 181.122C445.911 181.434 447.044 183.005 447.795 185.79C450.152 194.57 440.487 204.81 440.075 205.244C439.975 205.327 439.85 205.367 439.725 205.356ZM440.559 184.32L440.291 203.384C442.628 200.609 448.618 192.676 446.838 186.058C446.21 183.74 445.314 182.392 444.254 182.169C442.834 181.879 441.207 183.506 440.559 184.32Z" fill="#263238"/>
<path d="M384.788 141.311C384.788 141.311 370.645 156.186 368.596 160.643C366.548 165.099 367.371 215.885 369.626 220.81C371.88 225.734 394.423 244.776 398.108 246.325C401.793 247.874 410.203 249.433 416.76 245.879C423.317 242.325 439.097 224.141 440.744 219.484C442.391 214.826 440.332 161.545 439.303 156.476C438.273 151.406 413.528 133.1 403.028 132.219C392.529 131.339 384.788 141.311 384.788 141.311Z" fill="white"/>
<path d="M407.352 248.509C404.129 248.527 400.928 247.939 397.892 246.77C393.929 245.099 371.417 225.924 369.132 220.988C366.846 216.052 365.961 164.999 368.102 160.364C370.161 155.907 383.543 141.768 384.376 140.932C384.891 140.275 392.611 130.771 403.039 131.662C413.219 132.531 438.623 150.515 439.776 156.275C440.734 161.066 442.864 214.826 441.187 219.606C439.426 224.62 423.451 242.793 416.955 246.347C413.95 247.855 410.664 248.594 407.352 248.509ZM401.69 132.721C392.261 132.721 385.22 141.579 385.148 141.634C385.004 141.779 371.046 156.487 369.06 160.787C367.073 165.088 367.948 215.784 370.089 220.408C372.23 225.032 394.546 244.063 398.304 245.645C402.256 247.305 410.368 248.564 416.544 245.222C423.163 241.645 438.757 223.428 440.27 219.127C441.928 214.425 439.766 161.189 438.809 156.442C437.851 151.696 413.322 133.645 402.987 132.788C402.565 132.788 402.143 132.721 401.721 132.721H401.69Z" fill="#263238"/>
<path d="M395.905 132.219C395.905 132.219 417.089 153.144 432.324 153.946L447.569 154.749C447.569 154.749 414.114 149.924 403.708 125.389C403.708 125.389 392.189 114.96 395.905 132.219Z" fill="#263238"/>
<path d="M447.569 155.306L432.334 154.503C417.089 153.701 396.461 133.501 395.586 132.632C395.512 132.556 395.458 132.46 395.432 132.353C394.207 126.648 394.474 123.306 396.255 122.125C398.89 120.375 403.553 124.487 404.068 124.955C404.13 125.008 404.179 125.077 404.212 125.155C414.382 149.133 447.332 154.125 447.661 154.203C447.794 154.219 447.916 154.292 448.001 154.404C448.085 154.516 448.126 154.66 448.114 154.804C448.099 154.947 448.034 155.078 447.933 155.171C447.831 155.264 447.701 155.312 447.569 155.306ZM396.368 131.907C398.098 133.579 418.057 152.609 432.396 153.367L441.001 153.824C430.708 151.016 410.934 143.473 403.337 125.712C401.999 124.52 398.468 121.946 396.801 123.05C395.854 123.673 395.061 125.701 396.368 131.93V131.907Z" fill="#263238"/>
<path d="M409.41 196.665C409.281 196.665 409.156 196.613 409.06 196.518C408.965 196.423 408.906 196.292 408.896 196.152L407.259 173.746C407.254 173.672 407.262 173.599 407.282 173.529C407.303 173.459 407.337 173.394 407.381 173.339C407.425 173.283 407.478 173.237 407.539 173.203C407.599 173.17 407.665 173.15 407.732 173.144C407.8 173.138 407.868 173.147 407.933 173.169C407.997 173.192 408.057 173.228 408.108 173.276C408.16 173.323 408.203 173.381 408.233 173.447C408.264 173.512 408.283 173.583 408.288 173.656L409.925 196.063C409.931 196.136 409.923 196.21 409.902 196.28C409.881 196.35 409.848 196.415 409.804 196.47C409.76 196.526 409.706 196.572 409.646 196.606C409.585 196.639 409.519 196.659 409.451 196.665H409.41Z" fill="#263238"/>
<path d="M404.665 207.317C401.803 207.317 399.065 203.974 398.952 203.796C398.904 203.742 398.866 203.677 398.842 203.607C398.817 203.537 398.806 203.462 398.809 203.387C398.812 203.311 398.829 203.238 398.859 203.17C398.889 203.102 398.931 203.041 398.983 202.992C399.035 202.942 399.096 202.904 399.162 202.881C399.228 202.857 399.298 202.848 399.367 202.855C399.436 202.861 399.504 202.883 399.565 202.918C399.626 202.954 399.68 203.002 399.724 203.061C399.724 203.061 402.277 206.203 404.665 206.203C406.631 206.203 409.606 202.058 410.594 200.464C410.63 200.403 410.678 200.35 410.734 200.308C410.789 200.267 410.852 200.238 410.919 200.224C410.985 200.209 411.053 200.209 411.119 200.224C411.186 200.238 411.249 200.267 411.304 200.308C411.417 200.39 411.496 200.517 411.523 200.661C411.55 200.805 411.523 200.954 411.448 201.077C411.057 201.712 407.527 207.317 404.665 207.317Z" fill="#263238"/>
<path d="M401.412 217.59C400.784 217.59 400.146 217.59 399.508 217.523C393.167 217.066 388.442 208.732 388.236 208.375C388.201 208.312 388.178 208.242 388.168 208.17C388.158 208.097 388.161 208.023 388.177 207.952C388.193 207.88 388.222 207.813 388.262 207.754C388.303 207.695 388.353 207.644 388.411 207.606C388.47 207.568 388.534 207.543 388.601 207.532C388.668 207.521 388.737 207.524 388.803 207.542C388.869 207.559 388.931 207.591 388.986 207.635C389.04 207.678 389.087 207.733 389.122 207.796C389.122 207.885 393.774 215.985 399.58 216.409C403.803 216.564 408.024 216.045 412.107 214.871C412.244 214.83 412.39 214.849 412.513 214.924C412.637 214.999 412.728 215.124 412.766 215.272C412.804 215.42 412.787 215.578 412.717 215.712C412.648 215.845 412.532 215.944 412.395 215.985C408.807 216.997 405.12 217.535 401.412 217.59Z" fill="#263238"/>
<path d="M410.203 170.158C410.203 170.158 417.408 164.386 420.239 162.359C423.07 160.331 432.334 164.13 432.334 164.13C432.334 164.13 425.365 159.919 421.68 159.25C417.995 158.581 410.409 164.353 409.791 167.049C409.174 169.746 407.352 169.044 410.203 170.158Z" fill="#263238"/>
<path d="M410.203 170.671C410.145 170.681 410.086 170.681 410.028 170.671C408.669 170.147 408.268 169.991 408.144 169.556C408.122 169.383 408.14 169.206 408.198 169.043C408.255 168.879 408.35 168.734 408.474 168.62C408.877 168.154 409.161 167.582 409.297 166.96C409.966 164.052 417.738 158.047 421.763 158.782C425.499 159.451 432.303 163.551 432.592 163.718C432.704 163.788 432.788 163.901 432.828 164.035C432.868 164.169 432.861 164.314 432.808 164.442C432.754 164.57 432.656 164.671 432.536 164.725C432.416 164.779 432.281 164.781 432.159 164.732C429.658 163.707 422.699 161.389 420.527 162.905C417.697 164.866 410.584 170.593 410.512 170.648C410.413 170.686 410.306 170.693 410.203 170.671ZM409.328 169.166L410.121 169.49C411.346 168.498 417.398 163.662 419.961 161.88C421.433 160.854 424.243 161.155 426.837 161.768C425.168 160.889 423.41 160.224 421.598 159.785C418.191 159.183 410.841 164.776 410.275 167.139C410.129 167.906 409.803 168.62 409.328 169.211V169.166Z" fill="#263238"/>
<path d="M395.442 171.217C395.065 170.25 394.44 169.422 393.641 168.829C392.842 168.236 391.902 167.905 390.933 167.874C387.454 167.651 372.075 172.097 374.742 172.097C377.408 172.097 388.473 171.874 391.345 171.874C392.738 171.968 394.134 171.744 395.442 171.217Z" fill="#263238"/>
<path d="M374.741 172.665C374.598 172.687 374.452 172.665 374.319 172.602C374.186 172.539 374.073 172.437 373.99 172.309C373.942 172.215 373.917 172.109 373.917 172.002C373.917 171.895 373.942 171.79 373.99 171.696C374.618 170.582 388.092 167.139 390.944 167.328C392.012 167.359 393.05 167.725 393.931 168.382C394.811 169.038 395.497 169.957 395.905 171.027C395.947 171.155 395.945 171.295 395.9 171.422C395.854 171.549 395.769 171.654 395.658 171.718C394.275 172.28 392.8 172.527 391.324 172.442C389.863 172.442 386.281 172.442 382.76 172.554C379.24 172.665 376.049 172.665 374.741 172.665ZM390.635 168.442C388.041 168.442 380.815 170.325 377.078 171.529L382.77 171.439C386.291 171.384 389.883 171.328 391.345 171.328C392.486 171.355 393.626 171.213 394.732 170.905C394.34 170.17 393.78 169.558 393.105 169.126C392.431 168.695 391.665 168.459 390.882 168.442H390.635Z" fill="#263238"/>
<path d="M430.697 183.907C427.604 184.667 424.44 185.04 421.269 185.021C417.151 184.799 413.476 183.462 415.092 185.456C416.708 187.45 420.013 189.233 425.129 188.119C430.245 187.005 432.128 185.902 430.697 183.907Z" fill="#263238"/>
<path d="M393.599 183.907C390.506 184.667 387.342 185.04 384.17 185.021C380.053 184.799 376.389 183.462 377.994 185.456C379.6 187.45 382.915 189.233 388.041 188.119C393.167 187.005 394.999 185.902 393.599 183.907Z" fill="#263238"/>
<path d="M325.394 311.773C325.394 311.773 331.57 275.005 334.37 271.406C337.17 267.807 367.742 240.743 369.42 238.927C371.098 237.111 383.162 217.367 383.728 219.796C384.294 222.225 382.328 232.854 378.674 238.615C375.019 244.375 369.986 251.372 369.986 251.372C369.986 251.372 388.823 256.531 389.853 257.746C390.882 258.96 397.367 274.069 397.706 275.952C398.304 279.205 397.439 282.693 394.907 282.938C392.601 283.149 377.521 274.737 377.521 274.737L365.498 276.52C365.498 276.52 356.81 288.052 350.912 290.18C348.267 291.227 345.547 292.04 342.78 292.609L343.068 315.071L325.394 311.773Z" fill="white"/>
<path d="M343.068 315.673H342.976L325.312 312.33C325.175 312.303 325.053 312.219 324.972 312.096C324.898 311.975 324.868 311.828 324.89 311.684C325.147 310.18 331.117 274.771 333.979 271.06C335.853 268.62 349.502 256.297 359.466 247.305C364.51 242.748 368.504 239.149 369.06 238.537C369.615 237.924 371.19 235.539 373.074 232.698C380.403 221.645 382.575 218.838 383.656 219.06C383.795 219.092 383.923 219.167 384.023 219.275C384.124 219.384 384.193 219.523 384.222 219.673C384.829 222.303 382.801 233.099 379.075 238.949C376.111 243.617 372.199 249.155 370.84 251.049C375.225 252.264 389.142 256.186 390.233 257.356C391.325 258.525 397.861 273.879 398.221 275.862C398.463 276.904 398.51 277.988 398.359 279.05C398.209 280.112 397.865 281.13 397.346 282.046C397.067 282.459 396.709 282.802 396.297 283.054C395.886 283.306 395.429 283.46 394.958 283.506C392.611 283.729 379.518 276.509 377.459 275.328L365.766 277.077C364.623 278.581 356.718 288.72 351.077 290.748C348.536 291.72 345.94 292.513 343.305 293.121L343.583 315.105C343.582 315.187 343.565 315.268 343.533 315.343C343.501 315.418 343.455 315.485 343.398 315.539C343.304 315.62 343.188 315.667 343.068 315.673ZM326.032 311.316L342.502 314.403L342.224 292.609C342.226 292.473 342.272 292.342 342.355 292.239C342.438 292.137 342.553 292.07 342.677 292.052C345.413 291.487 348.101 290.682 350.716 289.645C356.388 287.595 364.973 276.275 365.055 276.163C365.139 276.055 365.256 275.984 365.385 275.963L377.5 274.191C377.603 274.17 377.709 274.19 377.799 274.247C383.584 277.467 393.363 282.548 394.907 282.381C395.235 282.349 395.553 282.241 395.839 282.064C396.125 281.887 396.372 281.646 396.564 281.355C396.996 280.566 397.279 279.692 397.397 278.784C397.516 277.875 397.467 276.951 397.254 276.063C396.883 274.057 390.47 259.138 389.544 258.135C388.669 257.3 377.006 253.868 369.873 251.907C369.79 251.884 369.714 251.839 369.652 251.776C369.59 251.714 369.542 251.635 369.515 251.548C369.487 251.461 369.48 251.367 369.494 251.277C369.508 251.186 369.543 251.1 369.595 251.027C369.595 250.949 374.67 243.985 378.262 238.303C381.854 232.62 383.543 223.072 383.296 220.308C381.731 221.556 376.708 229.144 373.918 233.344C371.931 236.342 370.367 238.704 369.801 239.317C369.235 239.929 365.395 243.395 360.135 248.152C350.758 256.609 336.594 269.4 334.772 271.762C332.579 274.603 327.782 300.754 326.032 311.316Z" fill="#263238"/>
<path d="M397.748 276.519C397.664 276.522 397.581 276.5 397.507 276.457C397.433 276.414 397.37 276.351 397.326 276.274C394.063 271.071 388.628 262.581 387.938 261.99C387.248 261.4 378.55 259.985 370.82 258.859C370.683 258.839 370.56 258.76 370.477 258.641C370.394 258.522 370.358 258.372 370.377 258.224C370.396 258.077 370.469 257.943 370.579 257.853C370.689 257.763 370.827 257.724 370.964 257.745C374.834 258.313 387.557 260.219 388.586 261.088C389.616 261.957 397.305 274.224 398.17 275.572C398.209 275.633 398.236 275.701 398.251 275.773C398.265 275.846 398.266 275.92 398.254 275.993C398.241 276.065 398.215 276.134 398.178 276.196C398.141 276.258 398.092 276.311 398.036 276.352C397.956 276.437 397.856 276.494 397.748 276.519Z" fill="#263238"/>
<path d="M397.058 281.121C396.983 281.122 396.909 281.104 396.842 281.069C396.774 281.034 396.714 280.984 396.667 280.921C394.464 278.169 390.058 272.743 389.142 271.907C388.401 271.261 379.713 268.854 371.901 266.915C371.768 266.881 371.654 266.791 371.583 266.666C371.511 266.541 371.489 266.39 371.52 266.247C371.534 266.175 371.562 266.108 371.601 266.048C371.64 265.988 371.69 265.937 371.748 265.899C371.805 265.86 371.87 265.835 371.937 265.824C372.003 265.813 372.072 265.816 372.137 265.835C374.865 266.503 388.607 269.946 389.801 271.06C390.995 272.174 397.182 279.862 397.449 280.197C397.494 280.251 397.528 280.315 397.55 280.384C397.572 280.453 397.58 280.526 397.575 280.598C397.571 280.671 397.552 280.742 397.522 280.807C397.491 280.872 397.449 280.93 397.398 280.977C397.306 281.07 397.184 281.122 397.058 281.121Z" fill="#263238"/>
<path d="M397.387 421.188C397.387 421.188 375.359 416.731 374.484 416.419C373.609 416.107 358.014 411.015 355.956 410.057C353.897 409.099 328.935 404.341 327.762 406.246C326.588 408.152 325.415 419.283 325.116 420.23C324.818 421.177 322.471 425.634 323.058 428.185C323.374 430.501 323.374 432.855 323.058 435.171C323.058 435.171 322.759 450.113 326.279 450.436C329.8 450.759 333.042 436.441 333.042 436.441C333.042 436.441 338.035 439.628 348.308 440.263C358.581 440.898 368.576 435.494 368.576 435.494L395.915 442.536L397.387 421.188Z" fill="white"/>
<path d="M326.424 450.993H326.269C322.461 450.647 322.522 437.745 322.563 435.16C322.875 432.892 322.875 430.587 322.563 428.319C322.049 426.09 323.48 422.748 324.252 420.998C324.427 420.575 324.571 420.241 324.632 420.062C324.694 419.884 324.89 418.514 325.075 417.132C325.796 411.996 326.506 407.271 327.329 405.934C328.873 403.439 354.649 408.842 356.151 409.544C357.654 410.246 367.32 413.466 371.942 415.004L374.608 415.884C375.277 416.118 388.638 418.859 397.449 420.642C397.575 420.666 397.687 420.74 397.765 420.849C397.843 420.958 397.881 421.095 397.871 421.232L396.43 442.536C396.426 442.617 396.406 442.696 396.37 442.767C396.335 442.838 396.285 442.9 396.224 442.948C396.165 442.997 396.096 443.031 396.023 443.046C395.95 443.062 395.874 443.059 395.802 443.037L368.668 436.096C367.289 436.798 357.881 441.422 348.308 440.831C339.908 440.308 335.029 438.135 333.413 437.277C332.589 440.72 329.851 450.993 326.424 450.993ZM329.882 406.336C329.305 406.27 328.722 406.358 328.184 406.592C327.443 407.795 326.578 413.979 326.125 417.299C325.868 419.182 325.734 420.096 325.641 420.408C325.549 420.72 325.415 420.987 325.209 421.466C324.55 423.004 323.15 426.224 323.593 428.051C323.926 430.437 323.926 432.863 323.593 435.249C323.48 441.177 324.262 449.734 326.362 449.879C328.626 450.035 331.364 441.667 332.538 436.319C332.559 436.234 332.596 436.155 332.647 436.088C332.699 436.021 332.763 435.966 332.836 435.929C332.909 435.89 332.988 435.87 333.068 435.87C333.148 435.87 333.228 435.89 333.3 435.929C333.3 435.929 338.333 439.048 348.339 439.672C358.344 440.296 368.246 435.015 368.349 434.959C368.46 434.92 368.579 434.92 368.689 434.959L395.452 441.801L396.842 421.656C393.136 420.909 375.164 417.266 374.32 416.954L371.674 416.074C366.671 414.413 357.376 411.327 355.771 410.581C353.763 409.634 335.688 406.336 329.882 406.336Z" fill="#263238"/>
<path d="M321.205 305.289L350.737 311.138L349.636 331.116C349.636 331.116 356.172 334.458 358.159 354.191C360.145 373.923 365.838 419.628 364.417 423.015C362.997 426.402 354.185 441.177 333.711 442.101C313.237 443.026 302.151 422.714 300.165 416.241C298.178 409.767 308.698 367.428 309.264 363.74C309.83 360.052 312.671 334.77 315.234 330.503C316.814 327.866 318.727 325.481 320.916 323.417L321.205 305.289Z" fill="#7E57C2"/>
<path d="M332.353 442.703C311.982 442.703 301.472 422.102 299.681 416.442C298.075 411.238 304.025 384.887 307.216 370.759C308.039 367.105 308.636 364.464 308.76 363.684C308.883 362.904 309.027 361.734 309.254 359.996C310.345 351.528 312.63 333.901 314.802 330.247C316.364 327.632 318.252 325.262 320.412 323.205L320.69 305.3C320.69 305.219 320.706 305.139 320.739 305.066C320.771 304.992 320.817 304.928 320.875 304.877C320.934 304.826 321.002 304.791 321.075 304.771C321.148 304.752 321.224 304.75 321.297 304.765L350.86 310.603C350.986 310.628 351.098 310.702 351.176 310.811C351.254 310.92 351.292 311.056 351.282 311.194L350.171 330.849C351.54 331.807 356.903 336.609 358.673 354.18C359.167 359.105 359.909 365.745 360.732 372.776C363.748 399.873 365.971 420.809 364.932 423.294C364.849 423.472 356.954 441.656 333.773 442.692L332.353 442.703ZM321.709 305.957L321.431 323.45C321.431 323.531 321.415 323.611 321.383 323.685C321.351 323.758 321.304 323.822 321.246 323.874C319.099 325.901 317.221 328.241 315.667 330.826C313.608 334.269 311.271 352.397 310.273 360.13C310.046 361.879 309.871 363.194 309.769 363.851C309.645 364.676 309.048 367.328 308.214 370.993C305.27 384.041 299.146 411.183 300.659 416.096C302.388 421.667 313.062 442.503 333.691 441.556C352.404 440.72 361.875 427.74 363.954 422.804C364.983 420.408 361.895 392.943 359.672 372.887C358.889 365.846 358.148 359.205 357.613 354.28C355.678 335.116 349.43 331.673 349.378 331.64C349.288 331.59 349.212 331.513 349.161 331.418C349.11 331.324 349.085 331.215 349.09 331.105L350.202 311.595L321.709 305.957Z" fill="#263238"/>
<path d="M344.561 329.233C342.888 329.225 341.218 329.11 339.558 328.888C339.423 328.871 339.3 328.797 339.215 328.682C339.13 328.567 339.091 328.421 339.105 328.275C339.123 328.128 339.194 327.994 339.301 327.903C339.409 327.811 339.545 327.769 339.682 327.784C341.301 327.998 342.93 328.109 344.561 328.119C344.697 328.119 344.828 328.177 344.925 328.282C345.021 328.386 345.076 328.528 345.076 328.676C345.076 328.824 345.021 328.965 344.925 329.07C344.828 329.174 344.697 329.233 344.561 329.233Z" fill="#263238"/>
<path d="M332.672 327.606H332.559C328.557 326.646 324.612 325.433 320.742 323.974C320.617 323.921 320.516 323.817 320.461 323.685C320.406 323.553 320.401 323.402 320.446 323.266C320.492 323.13 320.585 323.018 320.705 322.955C320.826 322.891 320.964 322.881 321.092 322.926C324.917 324.37 328.819 325.568 332.775 326.514C332.841 326.53 332.904 326.56 332.96 326.602C333.015 326.644 333.063 326.698 333.099 326.76C333.135 326.822 333.16 326.892 333.171 326.964C333.183 327.037 333.181 327.111 333.166 327.183C333.14 327.304 333.077 327.411 332.987 327.488C332.898 327.565 332.786 327.607 332.672 327.606Z" fill="#263238"/>
<path d="M483.73 315.328L480.796 397.344C480.796 397.344 477.564 397.667 476.391 399.249C475.609 400.346 474.92 401.517 474.332 402.748C474.332 402.748 444.676 404.018 430.574 408.475C422.48 410.967 414.616 414.264 407.084 418.325L394.155 418.024L391.51 454.893L408.844 455.528C408.844 455.528 417.357 460.932 456.123 464.753C494.888 468.575 512.809 469.522 516.916 464.43C521.023 459.338 522.794 451.394 523.381 447.272C523.967 443.149 531.019 417.701 531.019 380.82C531.019 343.94 499.006 290.57 491.954 278.459C484.903 266.347 477.543 267.317 472.572 268.609" fill="#7E57C2"/>
<path d="M500.477 468.463C490.647 468.463 476.257 467.282 456.081 465.299C419.58 461.7 409.884 456.753 408.731 456.073L391.53 455.438C391.46 455.439 391.39 455.423 391.326 455.392C391.261 455.361 391.204 455.316 391.157 455.259C391.11 455.202 391.075 455.135 391.055 455.062C391.034 454.989 391.027 454.912 391.036 454.837L393.64 418.023C393.648 417.881 393.708 417.747 393.806 417.651C393.904 417.555 394.033 417.505 394.165 417.511L406.96 417.823C414.494 413.788 422.349 410.499 430.43 407.996C443.667 403.817 470.863 402.425 474.013 402.257C474.579 401.083 475.241 399.964 475.989 398.915C477.018 397.522 479.324 397.021 480.302 396.865L483.215 315.316C483.215 315.242 483.229 315.169 483.256 315.101C483.284 315.033 483.324 314.972 483.374 314.921C483.424 314.871 483.484 314.833 483.549 314.809C483.613 314.784 483.682 314.775 483.75 314.781C483.818 314.784 483.884 314.802 483.946 314.832C484.007 314.863 484.063 314.906 484.108 314.96C484.154 315.014 484.19 315.077 484.213 315.146C484.237 315.215 484.247 315.288 484.245 315.361L481.311 397.377C481.306 397.512 481.257 397.64 481.172 397.739C481.087 397.837 480.972 397.899 480.848 397.912C480.004 397.99 477.646 398.458 476.792 399.606C476.037 400.674 475.369 401.811 474.795 403.004C474.755 403.095 474.693 403.173 474.614 403.228C474.536 403.283 474.446 403.313 474.352 403.316C474.064 403.316 444.594 404.631 430.718 409.021C422.661 411.515 414.829 414.797 407.321 418.826C407.241 418.869 407.153 418.892 407.063 418.893L394.629 418.592L392.066 454.358L408.854 454.97C408.941 454.978 409.025 455.004 409.101 455.048C409.184 455.048 418.098 460.452 456.174 464.196C494.775 467.995 512.644 468.876 516.535 464.062C520.972 458.58 522.506 449.756 522.876 447.182C522.969 446.48 523.237 445.277 523.628 443.438C528.186 422.931 530.494 401.913 530.504 380.82C530.504 357.266 517.647 323.372 492.304 280.085L491.522 278.759C484.203 266.213 476.421 268.197 472.695 269.144C472.561 269.177 472.421 269.153 472.304 269.076C472.186 268.999 472.101 268.875 472.067 268.731C472.052 268.66 472.05 268.585 472.062 268.513C472.073 268.44 472.098 268.371 472.134 268.309C472.17 268.247 472.218 268.193 472.274 268.151C472.329 268.109 472.392 268.079 472.458 268.063C478.501 266.525 485.603 266.525 492.397 278.158L493.169 279.495C518.625 322.949 531.533 357.054 531.533 380.82C531.521 401.999 529.206 423.102 524.636 443.695C524.256 445.433 523.988 446.692 523.895 447.349C523.514 450.001 521.929 459.082 517.307 464.798C515.238 467.349 509.999 468.463 500.477 468.463Z" fill="#263238"/>
<path d="M480.796 397.901C480.706 397.903 480.617 397.878 480.539 397.828C480.461 397.779 480.397 397.708 480.354 397.622C480.294 397.513 480.271 397.385 480.288 397.259C480.304 397.134 480.36 397.018 480.446 396.931L497.482 379.773C497.529 379.721 497.585 379.68 497.647 379.652C497.709 379.623 497.775 379.609 497.842 379.609C497.909 379.609 497.976 379.623 498.038 379.652C498.1 379.68 498.156 379.721 498.203 379.773C498.251 379.825 498.289 379.886 498.315 379.954C498.341 380.022 498.355 380.095 498.355 380.168C498.355 380.242 498.341 380.315 498.315 380.383C498.289 380.45 498.251 380.512 498.203 380.564L482.762 396.163L498.707 391.149C498.844 391.107 498.99 391.126 499.113 391.202C499.237 391.277 499.328 391.402 499.366 391.55C499.404 391.698 499.386 391.856 499.317 391.989C499.247 392.123 499.132 392.222 498.995 392.263L480.971 397.923L480.796 397.901Z" fill="#263238"/>
<path d="M504.461 390.469C504.325 390.489 504.187 390.448 504.078 390.357C503.969 390.267 503.897 390.132 503.88 389.985C503.862 389.837 503.899 389.688 503.983 389.57C504.067 389.452 504.191 389.374 504.327 389.355L510.02 387.572C510.085 387.55 510.153 387.543 510.221 387.55C510.288 387.557 510.354 387.579 510.413 387.615C510.473 387.65 510.525 387.698 510.567 387.756C510.609 387.814 510.64 387.88 510.658 387.951C510.696 388.093 510.681 388.246 510.615 388.375C510.549 388.505 510.439 388.601 510.308 388.642L504.605 390.425C504.561 390.451 504.512 390.467 504.461 390.469Z" fill="#263238"/>
<path d="M500.766 408.074H500.58C493.107 404.954 474.486 403.35 474.291 403.338C474.223 403.333 474.157 403.312 474.097 403.279C474.036 403.246 473.983 403.2 473.939 403.144C473.895 403.088 473.861 403.023 473.841 402.953C473.82 402.883 473.812 402.81 473.817 402.737C473.823 402.664 473.841 402.592 473.872 402.527C473.903 402.462 473.945 402.403 473.997 402.356C474.049 402.308 474.108 402.272 474.173 402.25C474.237 402.227 474.305 402.218 474.373 402.224C475.145 402.291 493.334 403.862 500.951 407.026C501.019 407.04 501.083 407.067 501.141 407.107C501.199 407.147 501.249 407.199 501.288 407.26C501.327 407.322 501.355 407.39 501.369 407.463C501.384 407.536 501.385 407.611 501.373 407.684C501.361 407.757 501.336 407.827 501.298 407.889C501.261 407.952 501.213 408.006 501.157 408.048C501.1 408.091 501.037 408.121 500.97 408.137C500.903 408.152 500.833 408.154 500.766 408.141V408.074Z" fill="#263238"/>
<path d="M506.057 424.608C505.977 424.608 505.898 424.587 505.827 424.548C505.756 424.51 505.693 424.454 505.645 424.385C504.873 423.271 504.029 422.257 503.133 421.243C503.051 421.135 503.009 420.997 503.017 420.856C503.024 420.716 503.08 420.584 503.174 420.487C503.268 420.389 503.392 420.334 503.522 420.332C503.652 420.33 503.778 420.381 503.874 420.475C504.786 421.504 505.648 422.582 506.458 423.706C506.542 423.821 506.581 423.968 506.565 424.114C506.55 424.26 506.482 424.394 506.376 424.486C506.284 424.562 506.172 424.605 506.057 424.608Z" fill="#263238"/>
<path d="M499.911 417.823C499.792 417.82 499.677 417.777 499.582 417.701C494.355 413.119 488.326 409.731 481.856 407.74C481.789 407.723 481.725 407.692 481.668 407.648C481.612 407.605 481.564 407.549 481.527 407.486C481.49 407.422 481.465 407.351 481.454 407.277C481.442 407.203 481.445 407.128 481.46 407.054C481.476 406.981 481.504 406.912 481.545 406.851C481.585 406.79 481.636 406.738 481.695 406.698C481.753 406.658 481.819 406.631 481.887 406.619C481.956 406.606 482.026 406.609 482.093 406.625C488.717 408.65 494.891 412.111 500.241 416.798C500.324 416.871 500.385 416.97 500.414 417.081C500.443 417.193 500.439 417.312 500.403 417.421C500.367 417.53 500.3 417.625 500.212 417.691C500.124 417.757 500.019 417.791 499.911 417.79V417.823Z" fill="#263238"/>
<path d="M407.084 453.221C406.947 453.221 406.817 453.162 406.72 453.058C406.624 452.954 406.569 452.812 406.569 452.664L406.322 421.834C406.321 421.761 406.333 421.688 406.357 421.62C406.382 421.552 406.419 421.49 406.466 421.437C406.513 421.384 406.569 421.342 406.63 421.313C406.692 421.283 406.759 421.267 406.827 421.266C406.963 421.266 407.094 421.325 407.191 421.429C407.287 421.534 407.341 421.675 407.341 421.823L407.64 452.653C407.64 452.802 407.586 452.945 407.49 453.051C407.393 453.157 407.263 453.218 407.125 453.221H407.084Z" fill="#263238"/>
<path d="M405.025 445.589H392.673C392.537 445.589 392.406 445.53 392.309 445.426C392.213 445.321 392.158 445.179 392.158 445.032C392.158 444.884 392.213 444.742 392.309 444.638C392.406 444.533 392.537 444.475 392.673 444.475H405.025C405.162 444.475 405.293 444.533 405.389 444.638C405.486 444.742 405.54 444.884 405.54 445.032C405.537 445.179 405.482 445.319 405.386 445.423C405.29 445.526 405.161 445.586 405.025 445.589Z" fill="#263238"/>
<path d="M395.627 427.461C395.496 427.461 395.369 427.407 395.274 427.31C395.178 427.212 395.12 427.079 395.113 426.937C395.108 426.865 395.118 426.792 395.14 426.723C395.162 426.654 395.197 426.591 395.242 426.537C395.287 426.483 395.341 426.44 395.402 426.409C395.463 426.378 395.529 426.361 395.596 426.358L400.589 426.035C400.656 426.03 400.724 426.04 400.788 426.064C400.852 426.088 400.911 426.125 400.962 426.174C401.013 426.223 401.054 426.282 401.084 426.348C401.113 426.414 401.13 426.485 401.134 426.558C401.14 426.706 401.093 426.849 401.003 426.959C400.912 427.07 400.786 427.138 400.65 427.149L395.658 427.461H395.627Z" fill="#263238"/>
</svg>
